{"glyphs":{"0":{"ha":772,"x_min":72,"x_max":700,"o":"m 700 507 q 586 96 700 240 q 375 -21 494 -21 q 147 132 233 -21 q 72 451 72 268 q 186 863 72 718 q 397 979 278 979 q 625 826 539 979 q 700 507 700 690 m 572 514 q 536 785 572 672 q 389 935 488 935 q 192 444 192 935 q 228 174 192 286 q 375 24 276 24 q 572 514 572 24 z "},"1":{"ha":772,"x_min":126,"x_max":624,"o":"m 471 974 l 471 96 q 561 36 471 36 l 624 36 l 624 0 q 515 1 588 0 q 406 3 442 3 q 176 0 326 3 l 176 36 l 253 36 q 343 96 343 36 l 343 853 q 144 746 244 796 l 126 779 q 457 979 274 854 l 471 974 z "},"2":{"ha":772,"x_min":32,"x_max":704,"o":"m 32 0 l 32 28 q 476 672 476 415 q 435 822 476 764 q 301 888 389 888 q 186 846 239 888 q 100 756 157 824 l 74 783 q 367 979 207 979 q 539 906 474 979 q 604 724 604 832 q 529 494 604 615 q 360 288 472 403 q 183 111 272 199 l 635 111 l 665 183 l 704 183 l 664 0 l 32 0 z "},"3":{"ha":772,"x_min":72,"x_max":658,"o":"m 251 472 l 251 508 q 417 572 349 517 q 494 726 494 633 q 451 849 494 801 q 333 896 407 896 q 236 867 282 896 q 158 800 207 849 l 138 826 q 256 936 204 903 q 406 979 322 979 q 548 924 490 979 q 606 782 606 868 q 544 632 606 701 q 404 536 489 569 l 407 533 q 561 497 490 540 q 658 311 658 439 q 571 94 658 190 q 283 -21 464 -21 q 131 21 194 -21 q 72 96 72 58 q 86 127 72 114 q 117 140 100 140 q 158 110 136 140 q 208 54 189 68 q 311 24 249 24 q 470 90 410 24 q 531 256 531 157 q 251 472 531 489 z "},"4":{"ha":772,"x_min":32,"x_max":704,"o":"m 32 304 l 32 360 l 507 979 l 568 979 l 568 396 l 704 396 l 704 304 l 568 304 l 568 0 l 449 0 l 449 304 l 32 304 m 449 396 l 449 813 l 446 813 l 135 396 l 449 396 z "},"5":{"ha":772,"x_min":64,"x_max":681,"o":"m 197 603 l 329 958 l 681 958 l 651 847 l 339 847 l 283 703 q 508 558 442 622 q 610 319 610 460 q 508 76 610 174 q 261 -21 407 -21 q 136 8 197 -21 q 64 90 64 42 q 107 132 64 132 q 151 104 129 132 q 197 51 185 63 q 289 24 233 24 q 444 93 385 24 q 499 258 499 160 q 403 474 499 385 q 197 603 343 529 z "},"6":{"ha":772,"x_min":81,"x_max":711,"o":"m 699 979 l 711 951 q 369 750 506 900 q 208 390 229 596 l 211 388 q 443 526 299 526 q 619 444 556 526 q 675 283 675 375 q 606 88 675 176 q 374 -21 519 -21 q 150 93 231 -21 q 81 333 81 192 q 208 692 81 529 q 475 907 313 822 q 699 979 611 978 m 556 233 q 513 378 556 319 q 381 443 464 443 q 260 401 311 443 q 208 293 208 360 q 246 108 208 179 q 385 24 292 24 q 515 88 469 24 q 556 233 556 144 z "},"7":{"ha":772,"x_min":81,"x_max":754,"o":"m 81 772 l 117 958 l 743 958 l 754 947 l 258 -21 l 199 0 l 642 847 l 154 847 l 117 767 l 81 772 z "},"8":{"ha":772,"x_min":114,"x_max":658,"o":"m 539 193 q 344 442 539 325 q 243 332 269 383 q 217 196 217 281 q 261 74 217 124 q 376 24 306 24 q 495 71 451 24 q 539 193 539 118 m 547 756 q 505 891 547 839 q 400 943 463 943 q 287 894 329 943 q 244 768 244 846 q 303 629 244 694 q 422 532 340 588 q 547 756 547 624 m 650 761 q 454 514 650 621 q 593 406 539 468 q 658 246 658 328 q 574 57 658 135 q 378 -21 490 -21 q 179 56 256 -21 q 114 204 114 122 q 174 357 114 292 q 317 464 217 406 q 192 568 232 522 q 133 714 133 636 q 208 906 133 833 q 403 979 283 979 q 578 921 507 979 q 650 761 650 863 z "},"9":{"ha":772,"x_min":61,"x_max":692,"o":"m 74 -21 l 61 7 q 405 210 267 58 q 564 568 543 363 l 561 571 q 329 432 474 432 q 153 514 217 432 q 97 675 97 583 q 167 871 97 782 q 399 979 253 979 q 622 865 542 979 q 692 625 692 767 q 564 267 692 429 q 297 51 460 136 q 74 -21 161 -19 m 217 725 q 260 581 217 639 q 392 515 308 515 q 513 557 461 515 q 564 665 564 599 q 526 850 564 779 q 388 935 481 935 q 257 871 303 935 q 217 725 217 814 z "}," ":{"ha":386,"x_min":0,"x_max":0,"o":""},"!":{"ha":463,"x_min":140,"x_max":324,"o":"m 247 261 l 215 261 l 165 600 q 144 793 144 742 q 231 932 144 932 q 318 793 318 932 q 297 600 318 742 l 247 261 m 232 -21 q 167 6 194 -21 q 140 69 140 32 q 168 134 140 106 q 232 163 196 163 q 296 135 268 163 q 324 69 324 107 q 297 6 324 32 q 232 -21 269 -21 z "},"\"":{"ha":772,"x_min":213,"x_max":560,"o":"m 467 633 l 467 633 l 446 839 q 440 900 440 893 q 500 969 440 969 q 560 900 560 969 q 554 839 560 893 l 533 633 q 500 597 529 597 q 467 633 471 597 m 239 633 l 239 633 l 218 839 q 213 900 213 893 q 272 969 213 969 q 332 900 332 969 q 326 839 332 893 l 306 633 q 272 597 301 597 q 239 633 243 597 z "},"#":{"ha":772,"x_min":40,"x_max":732,"o":"m 690 378 l 690 303 l 536 303 l 493 0 l 407 0 l 450 303 l 271 303 l 228 0 l 142 0 l 185 303 l 40 303 l 40 378 l 196 378 l 225 581 l 76 581 l 76 656 l 235 656 l 278 958 l 363 958 l 319 656 l 500 656 l 543 958 l 628 958 l 585 656 l 732 656 l 732 581 l 575 581 l 546 378 l 690 378 m 490 581 l 310 581 l 281 378 l 461 378 l 490 581 z "},"$":{"ha":772,"x_min":89,"x_max":683,"o":"m 621 965 l 632 781 l 599 781 q 417 946 569 944 l 417 554 q 600 453 540 508 q 683 263 683 378 q 609 63 683 142 q 417 -21 535 -15 l 417 -124 l 361 -124 l 361 -21 q 118 32 260 -21 q 89 236 113 113 l 117 242 q 361 24 181 13 l 361 433 q 119 721 119 533 q 188 906 119 831 q 361 990 256 982 l 361 1093 l 417 1093 l 417 990 q 621 965 522 985 m 361 574 l 361 946 q 265 886 300 935 q 231 769 231 838 q 267 651 231 700 q 361 574 296 613 m 417 413 l 417 24 q 518 84 481 32 q 556 206 556 136 q 519 335 556 285 q 417 413 489 376 z "},"%":{"ha":1389,"x_min":139,"x_max":1250,"o":"m 489 761 q 369 943 489 943 q 250 735 250 943 q 369 553 250 553 q 489 761 489 553 m 1250 219 q 1181 48 1250 117 q 1011 -21 1111 -21 q 851 43 914 -21 q 789 201 789 107 q 858 373 789 304 q 1028 442 928 442 q 1188 378 1125 442 q 1250 219 1250 314 m 1139 224 q 1019 406 1139 406 q 900 197 900 406 q 1019 15 900 15 q 1139 224 1139 15 m 600 757 q 531 585 600 654 q 361 517 461 517 q 201 581 264 517 q 139 739 139 644 q 208 910 139 842 q 378 979 278 979 q 538 915 475 979 q 600 757 600 851 m 403 -33 l 339 -33 l 968 992 l 1032 992 l 403 -33 z "},"&":{"ha":1311,"x_min":93,"x_max":1260,"o":"m 1238 129 l 1260 108 q 1015 -49 1147 -49 q 836 33 919 -49 q 710 193 806 63 q 565 46 597 71 q 375 -21 479 -21 q 176 60 258 -21 q 93 258 93 142 q 158 456 93 375 q 326 585 210 519 q 214 768 214 658 q 274 922 214 864 q 429 979 333 979 q 565 938 510 979 q 626 814 626 892 q 474 624 626 707 q 767 324 633 503 q 883 478 825 392 q 963 640 963 596 q 876 685 963 685 l 876 721 q 1053 717 964 717 q 1246 721 1150 717 l 1246 685 q 1086 647 1143 685 q 972 524 1043 619 q 790 290 860 371 q 917 132 853 211 q 1088 43 997 43 q 1238 129 1167 43 m 196 335 q 270 158 196 235 q 444 82 344 82 q 583 124 524 82 q 688 226 619 150 q 357 565 576 376 q 196 335 196 464 m 535 806 q 504 906 535 868 q 417 943 474 943 q 337 908 368 943 q 306 819 306 872 q 349 715 306 763 q 440 643 372 690 q 535 806 535 704 z "},"'":{"ha":386,"x_min":133,"x_max":253,"o":"m 160 633 l 160 633 l 139 839 q 133 900 133 893 q 193 969 133 969 q 253 900 253 969 q 247 839 253 893 l 226 633 q 193 597 222 597 q 160 633 164 597 z "},"(":{"ha":463,"x_min":111,"x_max":350,"o":"m 318 990 l 350 975 q 233 629 267 772 q 203 361 203 497 q 346 -251 203 49 l 314 -268 q 111 361 111 19 q 167 674 111 514 q 318 990 214 808 z "},")":{"ha":463,"x_min":113,"x_max":351,"o":"m 117 974 l 149 990 q 351 361 351 703 q 296 49 351 208 q 144 -268 249 -86 l 113 -253 q 229 93 196 -50 q 260 361 260 225 q 117 974 260 674 z "},"*":{"ha":772,"x_min":156,"x_max":617,"o":"m 375 690 l 375 690 l 403 700 q 449 629 425 665 q 475 551 475 586 q 415 503 475 503 q 364 561 364 503 q 375 690 364 604 m 396 778 l 396 778 l 371 786 l 371 889 q 429 969 371 969 q 482 919 482 969 q 447 846 482 896 q 396 778 421 811 m 418 726 l 418 726 l 418 753 q 554 788 542 788 q 617 732 617 788 q 561 676 617 676 q 490 697 542 676 q 418 726 425 725 m 325 724 l 325 724 l 347 701 q 292 619 319 661 q 219 567 253 567 q 181 584 199 567 q 164 622 164 601 q 226 690 164 667 q 325 724 276 707 m 339 775 l 339 775 l 324 756 q 225 783 274 769 q 156 846 156 808 q 172 884 156 868 q 213 900 189 900 q 283 849 240 900 q 339 775 311 813 z "},"+":{"ha":772,"x_min":79,"x_max":693,"o":"m 340 353 l 340 614 l 432 614 l 432 353 l 693 353 l 693 261 l 432 261 l 432 0 l 340 0 l 340 261 l 79 261 l 79 353 l 340 353 z "},",":{"ha":386,"x_min":72,"x_max":314,"o":"m 82 -265 l 72 -232 q 182 -179 135 -221 q 232 -71 232 -132 q 154 -3 232 -3 q 96 21 119 -3 q 72 78 72 44 q 104 142 72 119 q 175 163 132 163 q 278 108 238 163 q 314 0 314 60 q 82 -265 314 -214 z "},"-":{"ha":463,"x_min":58,"x_max":406,"o":"m 406 385 l 393 293 q 226 297 310 297 q 58 293 114 297 l 71 385 q 239 381 154 381 q 406 385 322 381 z "},"‐":{"ha":463,"x_min":58,"x_max":406,"o":"m 406 385 l 393 293 q 226 297 310 297 q 58 293 114 297 l 71 385 q 239 381 154 381 q 406 385 322 381 z "},".":{"ha":386,"x_min":101,"x_max":285,"o":"m 193 -21 q 128 6 156 -21 q 101 69 101 32 q 129 134 101 106 q 193 163 157 163 q 257 135 229 163 q 285 69 285 107 q 258 6 285 32 q 193 -21 231 -21 z "},"/":{"ha":386,"x_min":-15,"x_max":401,"o":"m 76 -21 l -15 -21 l 310 990 l 401 990 l 76 -21 z "},":":{"ha":386,"x_min":101,"x_max":285,"o":"m 193 -21 q 128 6 156 -21 q 101 69 101 32 q 129 134 101 106 q 193 163 157 163 q 257 135 229 163 q 285 69 285 107 q 258 6 285 32 q 193 -21 231 -21 m 193 392 q 128 418 156 392 q 101 482 101 444 q 129 547 101 518 q 193 575 157 575 q 257 547 229 575 q 285 482 285 519 q 258 418 285 444 q 193 392 231 392 z "},";":{"ha":386,"x_min":72,"x_max":314,"o":"m 82 -265 l 72 -232 q 182 -179 135 -221 q 232 -71 232 -132 q 154 -3 232 -3 q 96 21 119 -3 q 72 78 72 44 q 104 142 72 119 q 175 163 132 163 q 278 108 238 163 q 314 0 314 60 q 82 -265 314 -214 m 193 392 q 128 418 156 392 q 101 482 101 444 q 129 547 101 518 q 193 575 157 575 q 257 547 229 575 q 285 482 285 519 q 258 418 285 444 q 193 392 231 392 z "},"<":{"ha":772,"x_min":79,"x_max":693,"o":"m 693 92 l 693 -7 l 79 261 l 79 353 l 693 621 l 693 522 l 185 307 l 693 92 z "},"=":{"ha":772,"x_min":79,"x_max":693,"o":"m 693 492 l 693 400 l 79 400 l 79 492 l 693 492 m 693 214 l 693 122 l 79 122 l 79 214 l 693 214 z "},">":{"ha":772,"x_min":79,"x_max":693,"o":"m 79 92 l 588 307 l 79 522 l 79 621 l 693 353 l 693 261 l 79 -7 l 79 92 z "},"?":{"ha":617,"x_min":153,"x_max":506,"o":"m 249 261 l 213 261 l 213 511 q 367 554 307 517 q 440 690 440 601 q 397 796 440 754 q 265 843 350 843 q 244 841 258 843 q 224 839 231 839 q 153 907 153 839 q 226 969 153 969 q 432 842 347 969 q 506 617 506 731 q 458 464 506 518 q 303 393 411 410 q 261 372 274 389 q 249 306 249 354 l 249 261 m 244 -21 q 180 6 207 -21 q 153 69 153 32 q 181 134 153 106 q 244 163 208 163 q 308 135 281 163 q 336 69 336 107 q 309 6 336 32 q 244 -21 282 -21 z "},"@":{"ha":1111,"x_min":50,"x_max":1061,"o":"m 451 392 q 544 272 451 272 q 651 349 600 272 q 713 583 713 440 q 653 678 713 678 q 525 603 589 678 q 451 392 451 515 m 885 107 l 903 63 q 597 -21 722 -21 q 181 147 338 -21 q 50 460 50 288 q 208 844 50 692 q 582 990 361 990 q 923 866 785 990 q 1061 556 1061 742 q 990 324 1061 429 q 790 204 911 204 q 688 250 728 204 q 660 308 658 285 l 657 308 q 599 250 636 278 q 489 207 544 208 q 404 235 439 206 q 349 389 349 281 q 419 606 349 493 q 636 743 506 743 q 707 718 681 743 q 740 667 719 707 l 754 724 l 856 724 l 765 365 q 757 314 757 332 q 813 249 757 249 q 954 354 896 249 q 1006 556 1006 447 q 894 814 1006 697 q 582 946 769 946 q 293 818 407 946 q 169 446 169 681 q 288 164 169 283 q 596 36 411 36 q 885 107 728 36 z "},"A":{"ha":1001,"x_min":25,"x_max":976,"o":"m 525 1008 l 790 276 q 829 167 810 221 q 869 74 856 93 q 976 36 897 36 l 976 0 q 897 1 950 0 q 817 3 843 3 q 614 0 750 3 l 614 36 l 639 36 q 715 82 715 36 q 694 163 715 101 l 625 364 l 299 364 l 268 267 q 231 101 231 147 q 260 44 231 58 q 325 36 276 36 l 357 36 l 357 0 q 276 1 331 0 q 193 3 221 3 q 25 0 136 3 l 25 36 q 111 60 89 43 q 160 135 133 76 q 217 290 165 149 l 394 786 q 424 911 424 868 q 421 947 424 936 q 501 1008 482 976 l 525 1008 m 453 829 l 318 421 l 604 421 l 456 829 l 453 829 z "},"B":{"ha":849,"x_min":50,"x_max":801,"o":"m 313 486 l 313 158 q 328 78 313 99 q 438 44 353 44 q 610 111 550 44 q 657 243 657 165 q 396 486 657 486 l 313 486 m 313 922 l 313 531 l 365 531 q 576 742 576 531 q 515 893 576 851 q 371 925 469 925 q 313 922 354 925 m 50 0 l 50 36 q 176 129 176 29 l 176 833 q 140 919 176 899 q 50 933 118 932 l 50 969 q 108 968 69 969 q 165 967 147 967 l 208 967 q 310 968 251 967 q 389 969 368 969 q 589 931 506 969 q 713 744 713 872 q 640 594 713 656 q 489 524 582 546 l 489 521 q 685 467 590 526 q 801 261 801 393 q 707 75 801 146 q 428 0 607 0 q 331 1 396 0 q 232 3 265 3 q 50 0 169 3 z "},"C":{"ha":1003,"x_min":81,"x_max":950,"o":"m 935 917 l 949 718 l 914 718 q 617 946 876 946 q 361 851 469 946 q 225 506 225 732 q 351 160 225 300 q 639 24 474 24 q 820 90 743 24 q 918 264 897 156 l 950 256 l 918 53 q 778 3 875 26 q 611 -21 681 -21 q 224 122 368 -21 q 81 501 81 265 q 242 853 81 710 q 607 990 397 990 q 935 917 725 990 z "},"D":{"ha":1081,"x_min":40,"x_max":1000,"o":"m 168 142 l 168 815 q 128 921 168 897 q 40 933 108 932 l 40 969 q 204 967 94 967 q 308 968 228 967 q 444 969 388 969 q 857 818 701 969 q 1000 483 1000 681 q 899 190 1000 319 q 428 0 749 0 q 325 1 392 0 q 226 3 258 3 q 40 0 165 3 l 40 36 q 136 57 115 43 q 168 142 168 76 m 304 919 l 304 164 q 449 44 304 44 q 761 183 656 44 q 847 478 847 299 q 729 800 847 675 q 413 925 611 925 q 304 919 404 925 z "},"E":{"ha":849,"x_min":44,"x_max":826,"o":"m 313 925 l 313 531 l 496 531 q 594 578 568 531 q 613 650 606 597 l 640 650 q 635 494 635 589 q 638 419 635 475 q 640 340 642 364 l 613 340 q 576 457 613 433 q 461 474 553 474 l 313 474 l 313 238 q 332 83 313 114 q 456 44 357 44 l 542 44 q 699 75 649 44 q 793 218 754 111 l 826 213 q 769 0 786 86 q 561 1 700 0 q 353 3 422 3 q 44 0 147 3 l 44 36 q 155 63 133 36 q 176 193 176 90 l 176 810 q 153 911 176 892 q 44 933 131 931 l 44 969 q 325 967 138 967 q 725 969 590 967 l 725 763 l 697 756 q 632 888 682 851 q 475 925 582 925 l 313 925 z "},"F":{"ha":774,"x_min":44,"x_max":732,"o":"m 313 474 l 313 136 q 349 50 313 71 q 439 36 371 38 l 439 0 q 242 3 300 3 q 44 0 186 3 l 44 36 q 155 63 133 36 q 176 193 176 90 l 176 810 q 153 911 176 892 q 44 933 131 931 l 44 969 q 194 968 93 969 q 346 967 294 967 q 724 969 600 967 l 732 774 l 700 768 q 640 890 690 856 q 476 925 590 925 l 313 925 l 313 531 l 476 531 q 582 550 560 531 q 618 646 604 569 l 650 646 q 644 494 644 593 q 650 347 644 422 l 622 347 q 592 446 608 428 q 482 474 567 474 l 313 474 z "},"G":{"ha":1081,"x_min":81,"x_max":1053,"o":"m 954 915 l 978 721 l 947 721 q 829 894 921 836 q 621 946 746 946 q 335 810 444 946 q 233 504 233 683 q 339 174 233 313 q 631 24 451 24 q 818 78 744 24 l 818 285 q 782 374 818 353 q 692 386 760 386 l 692 422 q 883 419 822 419 q 1053 422 969 419 l 1053 386 q 986 374 1006 386 q 954 285 954 351 l 954 103 l 975 82 l 975 58 q 614 -21 754 -21 q 201 157 349 -21 q 81 483 81 301 q 229 846 81 701 q 597 990 378 990 q 954 915 753 990 z "},"H":{"ha":1158,"x_min":36,"x_max":1122,"o":"m 299 531 l 860 531 l 860 833 q 824 919 860 899 q 733 933 801 932 l 733 969 q 939 967 881 967 q 1029 968 968 967 q 1122 969 1090 969 l 1122 933 q 1032 919 1054 932 q 996 833 996 899 l 996 136 q 1032 50 996 71 q 1122 36 1054 38 l 1122 0 q 935 3 997 3 q 733 0 878 3 l 733 36 q 824 50 801 38 q 860 136 860 71 l 860 474 l 299 474 l 299 136 q 335 50 299 71 q 425 36 357 38 l 425 0 q 330 1 392 0 q 238 3 268 3 q 36 0 175 3 l 36 36 q 126 50 104 38 q 163 136 163 71 l 163 833 q 126 919 163 899 q 36 933 104 932 l 36 969 q 228 967 167 967 q 425 969 286 967 l 425 933 q 335 919 357 932 q 299 833 299 899 l 299 531 z "},"I":{"ha":461,"x_min":36,"x_max":425,"o":"m 163 136 l 163 833 q 126 919 163 899 q 36 933 104 932 l 36 969 q 228 967 167 967 q 425 969 286 967 l 425 933 q 335 919 357 932 q 299 833 299 899 l 299 136 q 335 50 299 71 q 425 36 357 38 l 425 0 q 330 1 392 0 q 238 3 268 3 q 36 0 175 3 l 36 36 q 126 50 104 38 q 163 136 163 71 z "},"J":{"ha":540,"x_min":-46,"x_max":504,"o":"m 378 833 l 378 119 q 360 -76 378 -7 q 314 -181 349 -121 q 225 -263 286 -231 q 97 -296 164 -296 q 0 -275 39 -296 q -46 -203 -46 -249 q -28 -158 -46 -174 q 13 -142 -10 -142 q 57 -192 57 -143 q 78 -235 57 -219 q 132 -251 100 -251 q 228 -151 204 -251 q 242 33 242 -93 l 242 833 q 206 919 242 899 q 115 933 183 932 l 115 969 q 307 967 246 967 q 504 969 365 967 l 504 933 q 414 919 436 932 q 378 833 378 899 z "},"K":{"ha":1003,"x_min":36,"x_max":971,"o":"m 304 482 l 631 825 q 682 901 682 879 q 604 933 682 933 l 604 969 q 783 967 724 967 q 917 969 828 967 l 917 933 q 810 911 853 933 q 668 790 756 882 l 431 542 q 851 81 568 386 q 971 36 894 36 l 971 0 q 836 3 882 3 q 736 0 803 3 q 522 243 654 100 q 304 482 414 363 m 36 0 l 36 36 q 126 50 104 38 q 163 136 163 71 l 163 833 q 126 919 163 899 q 36 933 104 932 l 36 969 q 228 967 167 967 q 404 969 307 967 l 404 933 q 332 919 351 932 q 299 833 299 899 l 299 136 q 332 50 299 71 q 410 36 353 38 l 410 0 q 327 1 385 0 q 238 3 269 3 q 36 0 175 3 z "},"L":{"ha":849,"x_min":50,"x_max":822,"o":"m 822 213 l 771 0 q 418 3 653 3 q 50 0 172 3 l 50 36 q 176 129 176 29 l 176 833 q 140 919 176 899 q 50 933 118 932 l 50 969 q 242 967 181 967 q 439 969 300 967 l 439 933 q 349 919 371 932 q 313 833 313 899 l 313 190 q 349 79 313 107 q 532 44 392 44 q 706 81 653 44 q 792 218 760 117 l 822 213 z "},"M":{"ha":1389,"x_min":32,"x_max":1357,"o":"m 326 969 l 700 190 q 1075 969 831 449 q 1189 967 1150 967 q 1251 968 1210 967 q 1311 969 1292 969 l 1311 933 q 1214 917 1236 933 q 1188 833 1188 896 q 1194 499 1188 701 q 1206 171 1206 178 q 1231 64 1208 88 q 1357 36 1258 36 l 1357 0 q 1243 1 1319 0 q 1128 3 1167 3 q 925 0 1061 3 l 925 36 q 1031 49 1008 36 q 1068 143 1069 68 l 1058 806 l 1056 806 l 728 125 q 674 -12 694 57 l 646 -12 q 263 775 549 204 l 260 775 l 249 272 q 247 185 247 210 q 275 60 247 85 q 389 36 303 36 l 389 0 q 303 1 361 0 q 217 3 246 3 q 32 0 154 3 l 32 36 q 150 71 115 36 q 197 246 193 117 q 213 815 213 764 q 187 910 213 888 q 90 933 161 933 l 90 969 q 238 967 188 967 q 283 968 253 967 q 326 969 313 969 z "},"N":{"ha":1157,"x_min":21,"x_max":1136,"o":"m 1006 790 l 1006 -12 l 974 -12 l 247 785 l 247 267 q 275 78 247 119 q 413 36 303 36 l 413 0 q 320 1 382 0 q 228 3 258 3 q 43 0 165 3 l 43 36 q 149 58 122 36 q 192 213 192 93 l 192 771 q 151 897 192 860 q 21 933 111 933 l 21 969 q 149 967 107 967 q 206 968 168 967 q 263 969 244 969 q 397 810 297 918 q 607 583 501 697 q 950 213 732 450 l 950 765 q 917 897 950 863 q 782 933 885 932 l 782 969 q 975 967 910 967 q 1056 968 1003 967 q 1136 969 1110 969 l 1136 933 q 1039 913 1063 933 q 1006 790 1006 885 z "},"O":{"ha":1157,"x_min":81,"x_max":1076,"o":"m 81 479 q 217 831 81 681 q 581 990 361 990 q 933 839 786 990 q 1076 490 1076 692 q 940 139 1076 289 q 576 -21 796 -21 q 225 131 371 -21 q 81 479 81 278 m 233 519 q 324 193 233 339 q 593 24 428 24 q 833 142 743 24 q 924 450 924 260 q 833 778 924 631 q 564 946 729 946 q 324 828 414 946 q 233 519 233 710 z "},"P":{"ha":772,"x_min":36,"x_max":731,"o":"m 40 933 l 40 969 q 228 967 103 967 q 301 968 250 967 q 382 969 351 969 q 610 913 517 969 q 731 693 731 839 q 636 493 731 575 q 432 415 547 415 q 394 417 417 415 q 361 417 371 417 l 361 463 q 414 460 379 460 q 544 532 497 460 q 586 678 586 593 q 507 874 586 808 q 360 925 446 925 q 299 921 322 925 l 299 136 q 335 50 299 71 q 426 36 357 38 l 426 0 q 329 1 392 0 q 238 3 267 3 q 36 0 175 3 l 36 36 q 126 50 104 38 q 163 136 163 71 l 163 797 q 140 906 163 879 q 40 933 117 933 z "},"Q":{"ha":1157,"x_min":81,"x_max":1115,"o":"m 1103 -204 l 1115 -229 q 972 -304 1058 -304 q 765 -194 885 -304 q 538 -21 614 -56 q 215 142 349 -3 q 81 479 81 286 q 217 831 81 681 q 581 990 361 990 q 933 839 786 990 q 1076 490 1076 692 q 983 193 1076 328 q 725 3 885 51 q 900 -135 764 -21 q 1053 -212 994 -212 q 1103 -204 1086 -212 m 233 519 q 324 193 233 339 q 593 24 428 24 q 833 142 743 24 q 924 450 924 260 q 833 778 924 631 q 564 946 729 946 q 324 828 414 946 q 233 519 233 710 z "},"R":{"ha":1003,"x_min":50,"x_max":981,"o":"m 439 458 l 313 458 l 313 136 q 349 50 313 71 q 439 36 371 38 l 439 0 q 344 1 406 0 q 251 3 282 3 q 50 0 189 3 l 50 36 q 176 129 176 29 l 176 833 q 140 919 176 899 q 50 933 118 932 l 50 969 q 261 967 203 967 q 339 968 281 967 q 447 969 397 969 q 706 883 624 969 q 768 724 768 819 q 710 572 768 639 q 571 486 656 511 q 722 261 647 374 q 824 124 788 164 q 981 36 901 36 l 981 0 q 929 1 964 0 q 876 3 894 3 q 758 0 836 3 q 589 222 678 89 q 439 458 514 340 m 624 715 q 396 925 624 925 q 313 917 363 925 l 313 510 q 386 503 347 503 q 569 572 504 503 q 624 715 624 631 z "},"S":{"ha":694,"x_min":64,"x_max":631,"o":"m 92 26 l 64 229 l 96 229 q 169 88 115 144 q 313 24 231 24 q 449 75 394 24 q 503 208 503 126 q 396 382 503 314 q 199 497 297 440 q 92 718 92 579 q 176 921 92 849 q 389 990 257 990 q 558 969 419 990 l 581 792 l 549 792 q 369 946 525 946 q 247 896 292 946 q 203 768 203 846 q 314 593 203 663 q 519 478 417 535 q 631 261 631 396 q 529 53 631 132 q 304 -21 435 -21 q 92 26 193 -21 z "},"T":{"ha":925,"x_min":22,"x_max":903,"o":"m 903 1008 l 890 788 l 853 788 q 838 878 849 860 q 742 913 817 913 l 531 913 l 531 136 q 567 50 531 71 q 657 36 589 38 l 657 0 q 562 1 624 0 q 469 3 500 3 q 268 0 407 3 l 268 36 q 358 50 336 38 q 394 136 394 71 l 394 913 l 213 913 q 97 883 126 913 q 58 788 79 865 l 22 788 l 38 1008 l 65 1008 q 153 969 81 969 l 783 969 q 874 1008 865 969 l 903 1008 z "},"U":{"ha":1003,"x_min":17,"x_max":986,"o":"m 986 969 l 986 933 q 890 885 908 933 q 876 710 876 851 l 876 310 q 788 74 876 161 q 514 -21 690 -21 q 243 64 338 -21 q 143 326 143 153 l 143 833 q 107 919 143 899 q 17 933 85 932 l 17 969 q 208 967 147 967 q 406 969 267 967 l 406 933 q 315 919 338 932 q 279 833 279 899 l 279 361 q 550 36 279 36 q 803 310 803 36 l 803 706 q 796 865 803 826 q 760 924 788 911 q 671 933 742 931 l 671 969 q 846 967 788 967 q 916 968 869 967 q 986 969 963 969 z "},"V":{"ha":1004,"x_min":8,"x_max":996,"o":"m 492 -21 l 261 554 q 154 824 224 644 q 103 911 131 889 q 8 933 75 933 l 8 969 q 204 967 139 967 q 292 968 233 967 q 381 969 351 969 l 381 933 q 323 928 361 932 q 285 896 285 925 q 324 767 285 867 q 374 642 349 704 l 558 167 l 664 442 q 765 711 700 531 q 808 869 808 846 q 775 925 808 913 q 703 933 760 931 l 703 969 q 867 967 811 967 q 996 969 910 967 l 996 933 q 903 879 933 933 q 797 617 900 874 l 543 -21 l 492 -21 z "},"W":{"ha":1389,"x_min":3,"x_max":1386,"o":"m 558 163 l 699 464 l 533 847 q 486 919 508 906 q 401 933 464 933 l 401 969 q 594 967 532 967 q 667 968 618 967 q 739 969 717 969 l 739 933 q 663 899 663 933 q 678 846 663 885 l 768 614 l 856 804 q 881 889 881 858 q 857 928 881 919 q 788 933 840 933 l 788 969 q 947 967 890 967 q 1007 968 965 967 q 1068 969 1049 969 l 1068 933 q 942 844 985 933 l 800 547 l 967 163 l 1199 797 q 1224 888 1224 865 q 1119 933 1224 932 l 1119 969 q 1275 967 1222 967 q 1330 968 1292 967 q 1386 969 1368 969 l 1386 933 q 1318 907 1342 933 q 1283 838 1304 890 l 951 -21 l 915 -21 l 728 399 l 532 -21 l 493 -21 l 149 824 q 100 907 122 888 q 3 933 71 933 l 3 969 q 193 967 125 967 q 275 968 219 967 q 357 969 331 969 l 357 933 q 271 901 271 933 q 286 838 271 875 l 558 163 z "},"X":{"ha":1081,"x_min":32,"x_max":1049,"o":"m 368 828 l 557 575 l 703 765 q 776 899 776 861 q 685 933 776 933 l 685 969 q 858 967 801 967 q 940 968 886 967 q 1019 969 993 969 l 1019 933 q 901 906 946 933 q 813 817 864 883 l 592 531 l 878 154 q 951 70 915 104 q 1049 36 986 36 l 1049 0 q 944 1 1014 0 q 839 3 874 3 q 689 0 789 3 l 689 36 q 771 54 771 36 q 743 106 771 68 l 508 426 l 324 174 q 263 65 263 90 q 371 36 263 36 l 371 0 q 289 1 344 0 q 206 3 233 3 q 32 0 149 3 l 32 36 q 97 43 74 36 q 251 181 161 63 l 474 472 l 175 867 q 39 933 125 933 l 39 969 q 261 967 183 967 q 343 968 288 967 q 425 969 399 969 l 425 933 q 328 906 328 933 q 368 828 328 882 z "},"Y":{"ha":1003,"x_min":33,"x_max":969,"o":"m 589 494 l 589 136 q 625 50 589 71 q 715 36 647 38 l 715 0 q 518 3 576 3 q 326 0 457 3 l 326 36 q 417 50 394 38 q 453 136 453 71 l 453 472 l 163 872 q 116 920 133 913 q 33 933 99 928 l 33 969 q 226 967 86 967 q 312 968 256 967 q 396 969 368 969 l 396 933 q 318 904 318 933 q 364 818 318 882 l 558 544 l 740 793 q 794 893 794 867 q 772 928 794 921 q 696 933 756 933 l 696 969 q 856 967 801 967 q 912 968 874 967 q 969 969 950 969 l 969 933 q 901 908 931 932 q 854 853 885 894 l 589 494 z "},"Z":{"ha":1003,"x_min":32,"x_max":971,"o":"m 971 236 l 907 0 q 678 1 831 0 q 468 3 526 3 q 250 1 396 3 q 32 0 104 0 l 729 913 l 279 913 q 154 865 196 913 q 107 767 126 835 l 74 767 q 99 878 86 822 q 115 990 115 956 l 151 990 q 188 969 154 969 l 932 969 l 238 57 l 643 57 q 844 97 786 57 q 940 244 894 131 l 971 236 z "},"[":{"ha":463,"x_min":138,"x_max":411,"o":"m 138 -260 l 138 982 l 147 990 q 275 986 217 986 q 354 988 313 986 q 411 990 396 990 l 411 954 l 317 954 q 253 943 265 954 q 240 886 240 932 l 240 -165 q 263 -224 240 -212 q 369 -232 281 -232 l 411 -232 l 411 -268 q 276 -264 344 -264 q 147 -268 213 -264 l 138 -260 z "},"\\":{"ha":386,"x_min":-15,"x_max":401,"o":"m 401 -21 l 310 -21 l -15 990 l 76 990 l 401 -21 z "},"]":{"ha":463,"x_min":51,"x_max":325,"o":"m 325 982 l 325 -260 l 315 -268 q 188 -264 247 -264 q 108 -266 150 -264 q 51 -268 67 -268 l 51 -232 l 146 -232 q 210 -221 197 -232 q 222 -164 222 -210 l 222 888 q 202 944 222 935 q 93 954 182 954 l 51 954 l 51 990 q 186 986 118 986 q 315 990 251 986 l 325 982 z "},"^":{"ha":772,"x_min":93,"x_max":679,"o":"m 188 451 l 93 451 l 344 958 l 428 958 l 679 451 l 585 451 l 386 856 l 188 451 z "},"_":{"ha":694,"x_min":0,"x_max":694,"o":"m 694 -174 l 0 -174 l 0 -104 l 694 -104 l 694 -174 z "},"`":{"ha":386,"x_min":92,"x_max":396,"o":"m 396 757 l 347 757 l 115 901 q 92 949 92 917 q 105 976 92 963 q 136 990 118 990 q 210 942 161 990 l 396 757 z "},"a":{"ha":694,"x_min":57,"x_max":646,"o":"m 421 125 l 421 308 q 268 256 344 282 q 169 144 169 210 q 199 74 169 104 q 268 44 228 44 q 351 69 311 44 q 421 125 372 82 m 633 78 l 646 54 q 508 -21 565 -21 q 444 13 468 -21 q 422 82 425 40 q 208 -21 310 -21 q 100 19 143 -21 q 58 114 57 58 q 128 235 61 193 q 421 349 182 267 l 421 440 q 286 560 421 560 q 181 463 183 560 q 155 420 179 436 q 103 404 131 404 q 78 432 78 404 q 121 519 78 482 q 238 590 151 546 q 299 622 268 606 q 363 635 328 635 q 471 606 418 635 q 532 518 532 571 l 532 133 q 582 54 532 54 q 633 78 614 54 z "},"b":{"ha":772,"x_min":64,"x_max":714,"o":"m 249 1042 l 249 535 q 456 635 367 635 q 646 546 572 635 q 714 343 714 463 q 622 93 714 200 q 382 -21 525 -21 q 261 -3 317 -21 q 189 28 258 -1 l 147 -4 l 118 11 q 138 258 138 139 l 138 856 q 121 938 138 918 q 64 964 110 950 l 64 986 q 207 1046 151 1014 q 238 1061 235 1061 q 249 1042 249 1061 m 249 494 l 249 157 q 285 67 249 110 q 392 15 328 15 q 553 104 494 15 q 603 285 603 179 q 532 479 603 394 q 381 560 464 560 q 249 494 325 560 z "},"c":{"ha":617,"x_min":35,"x_max":582,"o":"m 558 147 l 582 124 q 311 -21 458 -21 q 119 67 203 -21 q 35 267 35 156 q 133 527 35 419 q 379 635 231 635 q 500 614 447 635 q 567 539 567 589 q 514 478 567 478 q 468 507 492 478 q 421 561 435 550 q 328 590 385 590 q 192 511 244 590 q 146 351 146 440 q 213 161 146 240 q 389 82 279 82 q 558 147 472 82 z "},"d":{"ha":772,"x_min":58,"x_max":735,"o":"m 643 1042 l 643 119 q 658 68 643 78 q 711 63 668 63 l 735 63 l 735 35 l 733 35 q 635 7 704 29 q 547 -21 547 -21 q 532 17 532 -21 l 532 81 l 529 81 q 317 -21 431 -21 q 125 72 197 -21 q 58 281 58 157 q 159 529 58 424 q 401 635 260 635 q 532 610 472 635 l 532 856 q 515 938 532 918 q 458 964 504 950 l 458 986 q 601 1046 546 1014 q 632 1061 629 1061 q 643 1042 643 1061 m 532 144 l 532 463 q 482 565 532 532 q 385 590 443 590 q 244 531 301 590 q 178 329 178 460 q 240 138 178 214 q 397 63 303 63 q 481 85 436 63 q 532 144 532 110 z "},"e":{"ha":617,"x_min":47,"x_max":569,"o":"m 549 383 l 158 383 q 158 303 154 365 q 222 133 164 203 q 363 63 281 63 q 550 156 457 63 l 569 136 q 313 -21 451 -21 q 97 97 168 -21 q 47 282 47 181 q 151 561 47 464 q 328 635 231 635 q 488 581 421 635 q 563 417 561 521 q 561 392 563 401 l 549 383 m 163 428 l 404 428 q 443 463 443 428 q 411 554 443 518 q 322 590 379 590 q 217 547 260 590 q 163 428 175 504 z "},"f":{"ha":463,"x_min":44,"x_max":497,"o":"m 267 614 l 443 614 l 443 539 l 267 539 l 267 69 q 332 36 267 36 l 394 36 l 394 0 q 217 3 275 3 q 44 0 158 3 l 44 36 l 97 36 q 156 81 156 36 l 156 539 l 58 539 l 58 563 q 119 596 89 579 q 156 650 156 621 q 267 965 156 850 q 372 1043 317 1017 q 435 1061 411 1061 q 497 1004 497 1061 q 449 950 497 950 q 407 960 429 950 q 360 969 385 969 q 267 813 267 969 l 267 614 z "},"g":{"ha":694,"x_min":32,"x_max":663,"o":"m 660 599 l 660 532 l 522 538 q 558 432 558 493 q 494 288 558 349 q 301 218 422 218 q 225 226 267 218 q 183 156 183 196 q 281 92 183 92 q 381 92 317 92 q 472 90 446 90 q 663 -50 663 90 q 589 -204 663 -124 q 294 -317 486 -317 q 97 -267 171 -317 q 32 -161 32 -224 q 82 -54 32 -99 q 194 -1 125 -15 l 194 1 q 72 122 72 36 q 78 167 72 153 q 193 236 126 193 q 63 421 63 304 q 128 574 63 515 q 322 635 199 635 q 444 615 376 635 q 579 592 526 592 q 660 599 614 592 m 560 -112 q 364 0 560 0 q 215 -17 261 0 q 133 -131 133 -44 q 189 -237 133 -199 q 317 -272 239 -272 q 469 -239 401 -272 q 560 -112 560 -194 m 447 417 q 413 539 447 488 q 304 599 372 599 q 211 547 246 599 q 182 440 182 503 q 211 317 182 369 q 313 254 247 254 q 415 304 379 254 q 447 417 447 347 z "},"h":{"ha":772,"x_min":38,"x_max":735,"o":"m 129 82 l 129 856 q 113 938 129 918 q 56 964 101 950 l 56 986 q 199 1046 143 1014 q 229 1061 226 1061 q 240 1042 240 1061 l 240 513 q 310 578 275 546 q 454 635 383 635 q 592 576 543 635 q 640 425 640 518 l 640 82 q 661 42 640 51 q 710 36 674 36 l 735 36 l 735 0 q 661 1 711 0 q 585 3 611 3 q 435 0 535 3 l 435 36 l 460 36 q 519 60 508 36 q 529 188 529 83 l 529 344 q 508 486 529 442 q 393 551 478 551 q 240 474 325 551 l 240 82 q 261 42 240 51 q 310 36 274 36 l 335 36 l 335 0 q 262 1 311 0 q 188 3 213 3 q 38 0 138 3 l 38 36 l 63 36 q 111 42 99 36 q 129 82 129 51 z "},"i":{"ha":386,"x_min":44,"x_max":342,"o":"m 44 0 l 44 36 l 71 36 q 119 42 107 36 q 138 82 138 51 l 138 458 q 121 519 138 500 q 65 556 110 531 l 65 578 q 214 626 201 618 q 239 635 226 635 q 249 615 249 635 l 249 82 q 269 42 249 51 q 318 36 282 36 l 342 36 l 342 0 q 269 1 318 0 q 196 3 221 3 q 44 0 147 3 m 261 918 q 241 869 261 890 q 193 849 221 849 q 146 869 167 849 q 125 918 125 890 q 146 965 125 944 q 193 985 167 985 q 241 965 221 985 q 261 918 261 946 z "},"j":{"ha":386,"x_min":21,"x_max":261,"o":"m 249 615 l 249 -53 q 189 -228 249 -169 q 31 -317 150 -267 l 21 -285 q 122 -194 100 -246 q 138 -67 138 -160 l 138 458 q 118 519 138 501 q 46 556 104 533 l 46 578 q 214 628 169 601 q 239 635 225 635 q 249 615 249 635 m 261 918 q 241 869 261 890 q 193 849 221 849 q 146 869 167 849 q 125 918 125 890 q 146 965 125 944 q 193 985 167 985 q 241 965 221 985 q 261 918 261 946 z "},"k":{"ha":772,"x_min":38,"x_max":735,"o":"m 697 614 l 697 578 q 525 500 611 578 l 371 361 l 606 101 q 667 46 647 56 q 735 33 686 36 l 735 0 q 626 3 663 3 q 533 0 594 3 q 489 57 508 35 l 268 307 l 240 307 l 240 82 q 261 42 240 51 q 310 36 274 36 l 335 36 l 335 0 q 262 1 311 0 q 188 3 213 3 q 38 0 138 3 l 38 36 l 63 36 q 111 42 99 36 q 129 82 129 51 l 129 856 q 113 938 129 918 q 56 964 101 950 l 56 986 q 199 1046 143 1014 q 229 1061 226 1061 q 240 1042 240 1061 l 240 339 l 285 347 l 435 479 q 489 550 489 526 q 421 578 489 578 l 421 614 q 568 611 518 611 q 697 614 611 611 z "},"l":{"ha":386,"x_min":44,"x_max":342,"o":"m 44 0 l 44 36 l 71 36 q 119 42 107 36 q 138 82 138 51 l 138 856 q 121 938 138 918 q 64 964 110 950 l 64 986 q 207 1046 151 1014 q 238 1061 235 1061 q 249 1042 249 1061 l 249 82 q 269 42 249 51 q 318 36 282 36 l 342 36 l 342 0 q 269 1 318 0 q 196 3 221 3 q 44 0 147 3 z "},"m":{"ha":1156,"x_min":33,"x_max":1122,"o":"m 129 82 l 129 458 q 113 519 129 500 q 57 556 101 531 l 57 578 q 206 628 186 617 q 231 635 218 635 q 240 615 240 635 l 240 531 q 351 603 319 586 q 481 635 414 635 q 628 528 599 635 q 738 600 729 594 q 867 635 801 635 q 994 575 951 635 q 1032 439 1032 524 l 1032 82 q 1053 42 1032 51 q 1101 36 1065 36 l 1122 36 l 1122 0 q 1053 1 1101 0 q 979 3 1006 3 q 829 0 929 3 l 829 36 l 854 36 q 903 42 890 36 q 921 82 921 51 l 921 389 q 800 560 921 560 q 636 493 732 560 l 636 82 q 657 42 636 51 q 707 36 669 36 l 732 36 l 732 0 q 658 1 708 0 q 583 3 608 3 q 433 0 533 3 l 433 36 l 458 36 q 507 42 494 36 q 525 82 525 51 l 525 389 q 404 560 525 560 q 240 493 336 560 l 240 82 q 261 42 240 51 q 310 36 274 36 l 335 36 l 335 0 q 262 1 311 0 q 188 3 213 3 q 33 0 142 3 l 33 36 l 63 36 q 111 42 99 36 q 129 82 129 51 z "},"n":{"ha":772,"x_min":38,"x_max":735,"o":"m 129 82 l 129 450 q 114 504 129 488 q 49 542 99 521 l 49 568 q 232 635 107 588 q 240 621 240 635 l 240 531 q 356 604 315 585 q 481 635 418 635 q 640 440 640 635 l 640 82 q 661 42 640 51 q 710 36 674 36 l 735 36 l 735 0 q 662 1 711 0 q 588 3 613 3 q 438 0 538 3 l 438 36 l 463 36 q 511 42 499 36 q 529 82 529 51 l 529 442 q 401 560 529 560 q 240 493 340 560 l 240 82 q 261 42 240 51 q 310 36 274 36 l 335 36 l 335 0 q 262 1 311 0 q 188 3 213 3 q 38 0 138 3 l 38 36 l 63 36 q 111 42 99 36 q 129 82 129 51 z "},"o":{"ha":772,"x_min":58,"x_max":714,"o":"m 58 304 q 149 538 58 442 q 376 635 239 635 q 619 545 524 635 q 714 310 714 456 q 620 77 714 175 q 394 -21 526 -21 q 156 69 253 -21 q 58 304 58 160 m 186 318 q 235 124 186 214 q 393 15 294 15 q 542 111 489 15 q 586 296 586 190 q 538 490 586 400 q 378 599 478 599 q 231 503 283 599 q 186 318 186 424 z "},"p":{"ha":772,"x_min":26,"x_max":714,"o":"m 249 6 l 249 -247 q 314 -281 249 -281 l 376 -281 l 376 -317 q 199 -314 257 -314 q 26 -317 140 -314 l 26 -281 l 79 -281 q 138 -236 138 -281 l 138 422 q 111 514 138 490 q 56 542 111 515 l 56 563 q 219 638 110 589 q 233 643 233 643 q 249 631 249 643 l 249 532 q 458 635 363 635 q 644 542 569 635 q 714 339 714 454 q 614 87 714 194 q 372 -21 514 -21 q 249 6 306 -21 m 603 282 q 544 463 603 389 q 372 543 479 543 q 249 497 311 543 l 249 119 q 397 24 300 24 q 550 108 492 24 q 603 282 603 183 z "},"q":{"ha":772,"x_min":58,"x_max":739,"o":"m 538 -236 l 538 58 q 339 -21 433 -21 q 133 67 213 -21 q 58 271 58 149 q 165 529 58 419 q 397 635 269 635 q 564 586 478 635 l 635 647 l 649 638 l 649 -247 q 714 -281 649 -281 l 739 -281 l 739 -317 q 599 -314 694 -314 q 418 -317 549 -314 l 418 -281 l 479 -281 q 538 -236 538 -281 m 538 92 l 538 467 q 496 544 538 504 q 382 590 446 590 q 254 536 310 590 q 178 319 178 464 q 242 138 178 217 q 410 54 310 54 q 538 92 476 54 z "},"r":{"ha":540,"x_min":33,"x_max":507,"o":"m 33 0 l 33 36 l 71 36 q 119 42 107 36 q 138 82 138 51 l 138 472 q 110 515 138 499 q 65 535 88 525 l 65 556 q 183 611 119 579 q 235 635 229 635 q 247 617 247 635 l 247 492 l 250 492 q 428 635 342 635 q 482 615 457 635 q 507 561 507 596 q 488 511 507 532 q 442 490 469 490 q 398 507 421 490 q 350 524 375 524 q 290 497 322 524 q 249 408 249 463 l 249 82 q 268 42 249 51 q 315 36 279 36 l 393 36 l 393 0 l 199 3 q 33 0 133 3 z "},"s":{"ha":540,"x_min":58,"x_max":482,"o":"m 58 186 l 83 193 q 258 24 117 24 q 346 54 315 24 q 371 122 371 81 q 292 232 371 189 q 147 307 219 269 q 68 457 68 363 q 118 575 68 525 q 283 635 178 635 q 442 594 363 635 l 451 453 l 419 453 q 268 590 397 590 q 192 566 224 590 q 160 499 160 542 q 243 389 160 432 q 399 314 321 351 q 482 168 482 261 q 425 39 482 92 q 243 -21 358 -21 q 74 26 157 -21 l 58 186 z "},"t":{"ha":463,"x_min":26,"x_max":436,"o":"m 229 539 l 229 171 q 317 54 229 54 q 414 94 368 54 l 435 74 q 250 -21 343 -21 q 118 108 118 -21 l 118 539 l 26 539 l 26 561 q 119 638 100 618 q 213 756 165 681 l 229 756 l 229 614 l 436 614 l 436 539 l 229 539 z "},"u":{"ha":772,"x_min":46,"x_max":735,"o":"m 640 589 l 640 76 q 679 50 640 50 q 707 51 688 50 q 735 51 725 51 l 735 22 q 535 -21 644 14 l 528 -17 l 528 96 q 411 13 453 35 q 282 -21 349 -21 q 178 18 219 -21 q 129 144 129 63 l 129 500 q 46 578 129 571 l 46 604 q 147 610 74 606 q 225 614 217 614 q 240 574 240 614 l 240 215 q 361 54 240 54 q 529 139 428 54 l 529 513 q 413 569 529 538 l 413 594 q 563 607 486 600 q 629 614 626 614 q 640 589 640 614 z "},"v":{"ha":694,"x_min":26,"x_max":668,"o":"m 322 -21 l 133 471 q 85 564 104 546 q 26 578 69 578 l 26 614 q 165 611 118 611 q 238 613 190 611 q 310 614 286 614 l 310 578 q 246 571 261 578 q 231 540 231 564 q 275 411 231 532 l 372 147 l 488 433 q 515 540 514 497 q 503 567 517 561 q 442 578 489 574 l 442 614 q 542 611 508 611 q 604 613 563 611 q 668 614 646 614 l 668 578 q 597 551 622 578 q 557 478 579 532 l 357 -21 l 322 -21 z "},"w":{"ha":1081,"x_min":18,"x_max":1063,"o":"m 322 -21 l 125 471 q 75 564 94 546 q 18 578 60 578 l 18 614 q 157 611 110 611 q 228 613 182 611 q 294 614 275 614 l 294 578 q 222 551 222 578 q 233 510 222 538 l 379 136 l 497 442 q 504 488 504 460 q 404 578 504 571 l 404 614 q 556 611 504 611 q 625 613 579 611 q 693 614 671 614 l 693 578 q 642 572 647 574 q 615 544 615 567 q 647 442 615 526 l 763 136 l 765 136 q 883 439 821 272 q 906 538 906 497 q 822 578 906 574 l 822 614 q 953 611 908 611 q 1007 613 971 611 q 1063 614 1043 614 l 1063 578 q 994 551 1019 578 q 954 478 975 532 l 758 -12 l 708 -21 l 538 417 l 371 -12 l 322 -21 z "},"x":{"ha":772,"x_min":26,"x_max":746,"o":"m 26 0 l 26 36 q 119 49 89 36 q 188 110 149 61 q 336 285 236 165 q 125 551 263 386 q 51 578 103 574 l 51 614 q 194 611 146 611 q 272 613 221 611 q 347 614 322 614 l 347 578 q 275 556 275 578 q 338 465 275 544 q 411 371 410 372 q 493 467 413 372 q 550 550 550 535 q 486 578 550 578 l 486 614 q 636 611 586 611 q 690 613 654 611 q 746 614 726 614 l 746 578 q 590 507 651 578 q 439 333 540 451 q 668 49 543 197 q 715 36 690 36 l 746 36 l 746 0 q 666 1 718 0 q 589 3 614 3 q 438 0 538 3 l 438 36 q 493 39 481 36 q 511 57 511 43 q 446 146 511 63 q 364 249 404 197 q 279 150 360 243 q 208 58 208 69 q 290 36 208 36 l 290 0 q 160 3 204 3 q 26 0 115 3 z "},"y":{"ha":694,"x_min":24,"x_max":671,"o":"m 24 578 l 24 614 q 185 611 132 611 q 247 613 206 611 q 310 614 289 614 l 310 578 q 261 572 268 574 q 233 540 233 564 q 297 360 233 518 q 374 167 368 188 l 376 167 q 456 358 382 182 q 514 519 514 496 q 436 578 514 578 l 436 614 q 567 611 522 611 q 671 614 601 611 l 671 578 q 600 554 626 579 q 561 489 581 536 l 247 -247 q 158 -317 218 -317 q 109 -297 128 -317 q 90 -250 90 -278 q 110 -202 90 -224 q 157 -181 129 -181 q 214 -201 192 -181 q 311 22 278 -67 q 111 526 132 489 q 24 578 81 583 z "},"z":{"ha":617,"x_min":31,"x_max":579,"o":"m 192 44 l 393 44 q 476 69 450 44 q 550 182 496 88 l 579 175 l 540 0 l 31 0 l 31 11 l 401 569 l 242 569 q 156 557 179 569 q 96 467 117 536 l 63 467 l 81 643 l 108 643 q 129 618 108 622 q 201 614 143 614 l 560 614 l 192 44 z "},"{":{"ha":463,"x_min":76,"x_max":386,"o":"m 182 -64 l 182 194 q 160 305 182 268 q 76 361 139 342 q 161 419 139 381 q 182 528 182 454 l 182 786 q 236 954 182 908 q 386 990 281 990 l 386 971 q 297 913 324 957 q 274 794 274 874 l 274 549 q 253 426 274 465 q 161 363 229 381 l 161 360 q 253 296 229 342 q 274 174 274 257 l 274 -72 q 297 -190 274 -151 q 386 -249 324 -235 l 386 -268 q 236 -232 281 -268 q 182 -64 182 -186 z "},"|":{"ha":308,"x_min":108,"x_max":200,"o":"m 108 -21 l 108 1061 l 200 1061 l 200 -21 l 108 -21 z "},"}":{"ha":463,"x_min":76,"x_max":386,"o":"m 281 786 l 281 528 q 301 419 281 454 q 386 361 324 381 q 302 305 324 342 q 281 194 281 268 l 281 -64 q 226 -232 281 -186 q 76 -268 182 -268 l 76 -249 q 165 -190 139 -235 q 189 -72 189 -151 l 189 174 q 210 296 189 257 q 301 360 233 342 l 301 363 q 210 426 233 381 q 189 549 189 465 l 189 794 q 165 913 189 874 q 76 971 139 957 l 76 990 q 226 954 182 990 q 281 786 281 908 z "},"~":{"ha":772,"x_min":65,"x_max":707,"o":"m 657 404 l 657 404 l 707 335 q 638 253 665 276 q 533 215 590 215 q 386 261 479 215 q 232 307 293 307 q 115 210 160 307 l 65 279 q 239 399 128 399 q 401 353 301 399 q 535 307 501 307 q 657 404 593 307 z "},"¡":{"ha":463,"x_min":139,"x_max":322,"o":"m 215 392 l 247 392 l 297 53 q 318 -140 318 -89 q 232 -279 318 -279 q 144 -140 144 -279 q 165 53 144 -89 l 215 392 m 231 674 q 295 647 268 674 q 322 583 322 621 q 294 519 322 547 q 231 490 267 490 q 167 518 194 490 q 139 583 139 546 q 166 647 139 621 q 231 674 193 674 z "},"¢":{"ha":772,"x_min":113,"x_max":660,"o":"m 329 126 l 485 571 q 406 590 453 590 q 269 511 322 590 q 224 351 224 440 q 329 126 224 201 m 214 -206 l 286 3 q 162 110 211 36 q 113 267 113 185 q 210 527 113 419 q 457 635 308 635 q 506 631 481 635 l 564 800 l 615 800 l 553 621 q 644 539 644 599 q 592 478 644 478 q 556 497 572 478 q 524 536 539 517 l 372 101 q 467 82 418 82 q 636 147 550 82 l 660 124 q 389 -21 536 -21 q 332 -12 360 -21 l 265 -206 l 214 -206 z "},"£":{"ha":772,"x_min":38,"x_max":735,"o":"m 247 511 l 92 511 l 97 568 l 256 568 q 618 1061 331 1061 q 735 989 735 1061 q 681 932 735 932 q 653 938 665 932 q 631 999 649 981 q 569 1017 613 1017 q 443 881 488 1017 q 400 678 436 860 q 383 568 390 626 l 572 568 l 565 511 l 374 511 q 229 168 342 325 q 304 168 269 172 q 458 100 372 160 q 569 44 540 44 q 626 71 606 44 q 643 111 643 90 q 590 174 643 154 q 589 186 589 178 q 636 233 589 233 q 699 157 699 233 q 657 49 699 99 q 494 -21 600 -21 q 330 49 422 -21 q 197 115 238 118 q 64 -6 128 -6 q 38 24 38 -6 q 80 105 38 64 q 176 161 122 146 q 247 511 219 235 z "},"¤":{"ha":772,"x_min":38,"x_max":735,"o":"m 38 192 l 114 271 q 42 478 42 360 q 117 688 42 611 l 38 767 l 99 829 l 176 750 q 390 824 263 824 q 594 751 510 824 l 672 829 l 735 767 l 660 690 q 731 481 731 610 q 660 269 731 357 l 735 192 l 675 132 l 600 213 q 389 135 514 135 q 172 211 261 135 l 97 132 l 38 192 m 639 481 q 565 662 639 583 q 390 740 492 740 q 208 663 283 740 q 133 478 133 586 q 208 294 133 371 q 389 218 283 218 q 566 297 493 218 q 639 481 639 375 z "},"¥":{"ha":772,"x_min":-28,"x_max":800,"o":"m -28 933 l -28 969 q 142 967 8 967 q 227 968 171 967 q 311 969 283 969 l 311 933 q 219 904 219 933 q 267 810 219 892 l 424 538 l 576 790 q 626 893 626 874 q 604 928 626 921 q 528 933 588 933 l 528 969 q 688 967 633 967 q 744 968 707 967 q 800 969 782 969 l 800 933 q 683 853 733 932 l 463 500 l 638 500 l 638 443 l 454 443 l 454 335 l 638 335 l 638 278 l 454 278 l 454 136 q 494 50 454 71 q 589 36 518 38 l 589 0 q 392 3 450 3 q 208 0 322 3 l 208 36 q 303 50 279 38 q 343 136 343 71 l 343 278 l 160 278 l 160 335 l 343 335 l 343 443 l 160 443 l 160 500 l 325 500 l 99 872 q -28 933 61 933 z "},"¦":{"ha":308,"x_min":108,"x_max":200,"o":"m 108 -21 l 108 371 l 200 371 l 200 -21 l 108 -21 m 108 669 l 108 1061 l 200 1061 l 200 669 l 108 669 z "},"§":{"ha":772,"x_min":125,"x_max":624,"o":"m 426 990 q 533 968 481 990 q 599 892 599 940 q 539 839 599 839 q 472 892 510 839 q 386 946 435 946 q 301 822 301 946 q 385 583 301 719 q 540 342 463 463 q 624 67 624 194 q 533 -169 624 -69 q 307 -268 442 -268 q 196 -242 250 -268 q 131 -156 131 -208 q 146 -118 131 -133 q 183 -103 161 -103 q 256 -163 221 -103 q 340 -224 292 -224 q 421 -176 393 -224 q 443 -81 443 -137 q 361 153 443 18 q 207 390 285 271 q 125 657 125 535 q 213 888 125 786 q 426 990 300 990 m 181 665 q 260 436 181 569 q 411 201 336 318 q 500 -47 494 61 q 468 -167 503 -100 l 471 -169 q 568 58 568 -72 q 485 300 568 157 q 329 544 407 422 q 246 767 246 683 q 264 875 246 821 l 261 878 q 181 665 181 778 z "},"¨":{"ha":386,"x_min":-6,"x_max":392,"o":"m 392 847 q 372 803 392 822 q 328 785 353 785 q 283 803 303 785 q 264 847 264 822 q 283 892 264 872 q 328 911 303 911 q 372 892 353 911 q 392 847 392 872 m 122 847 q 103 803 122 822 q 58 785 83 785 q 13 803 32 785 q -6 847 -6 822 q 13 892 -6 872 q 58 911 32 911 q 103 892 83 911 q 122 847 122 872 z "},"©":{"ha":1111,"x_min":50,"x_max":1061,"o":"m 556 -21 q 197 126 344 -21 q 50 481 50 274 q 197 842 50 693 q 556 990 344 990 q 915 842 768 990 q 1061 481 1061 693 q 914 126 1061 274 q 556 -21 767 -21 m 556 44 q 856 175 732 44 q 979 481 979 306 q 856 793 979 661 q 556 925 733 925 q 256 793 379 925 q 132 481 132 661 q 256 175 132 306 q 556 44 381 44 m 781 361 l 806 361 l 782 258 q 743 231 781 243 q 586 206 664 206 q 363 274 446 206 q 269 497 269 350 q 347 685 269 603 q 596 781 439 781 q 750 754 665 781 q 781 724 781 744 l 781 621 l 753 621 q 713 710 747 675 q 592 753 669 753 q 434 684 488 753 q 381 503 381 615 q 600 233 381 233 q 781 361 728 233 z "},"ª":{"ha":451,"x_min":36,"x_max":415,"o":"m 261 679 l 261 783 q 118 686 118 740 q 171 632 118 632 q 261 679 219 632 m 343 911 l 343 681 q 375 632 343 632 q 406 644 393 632 l 415 629 q 328 588 371 588 q 282 607 300 588 q 263 653 264 626 q 122 588 200 588 q 61 611 86 588 q 36 668 36 635 q 92 742 36 714 q 261 804 119 757 l 261 864 q 183 935 261 935 q 121 876 124 935 q 64 842 119 842 q 47 858 47 842 q 76 910 47 888 q 150 952 94 925 q 233 979 206 979 q 303 963 269 979 q 343 911 343 942 z "},"«":{"ha":772,"x_min":143,"x_max":629,"o":"m 143 339 l 375 565 l 399 546 l 254 339 l 399 132 l 375 113 l 143 339 m 374 339 l 606 565 l 629 546 l 485 339 l 629 132 l 606 113 l 374 339 z "},"¬":{"ha":772,"x_min":79,"x_max":693,"o":"m 601 106 l 601 400 l 79 400 l 79 492 l 693 492 l 693 106 l 601 106 z "},"®":{"ha":1111,"x_min":50,"x_max":1061,"o":"m 556 -21 q 197 126 344 -21 q 50 481 50 274 q 197 842 50 693 q 556 990 344 990 q 915 842 768 990 q 1061 481 1061 693 q 914 126 1061 274 q 556 -21 767 -21 m 556 44 q 856 175 732 44 q 979 481 979 306 q 856 793 979 661 q 556 925 733 925 q 256 793 379 925 q 132 481 132 661 q 256 175 132 306 q 556 44 381 44 m 557 240 l 557 221 l 318 221 l 318 240 q 369 247 368 247 q 392 286 392 256 l 392 669 q 383 728 392 719 q 321 742 375 736 l 321 764 l 579 764 q 699 732 651 764 q 750 629 750 694 q 631 475 750 514 l 714 358 q 825 232 776 271 l 825 221 l 732 221 q 661 289 703 221 q 556 461 608 375 l 483 461 l 483 286 q 506 247 483 256 q 557 240 507 247 m 483 736 l 483 489 l 549 489 q 647 622 647 489 q 546 736 647 736 l 483 736 z "},"°":{"ha":556,"x_min":79,"x_max":476,"o":"m 161 781 q 199 688 161 724 q 278 657 233 657 q 357 688 322 657 q 394 781 394 724 q 357 874 394 838 q 278 904 322 904 q 199 874 233 904 q 161 781 161 838 m 278 979 q 419 922 361 979 q 476 781 476 864 q 419 640 476 697 q 278 582 361 582 q 137 640 194 582 q 79 781 79 697 q 137 922 79 864 q 278 979 194 979 z "},"±":{"ha":772,"x_min":79,"x_max":693,"o":"m 340 415 l 340 568 l 432 568 l 432 415 l 693 415 l 693 324 l 432 324 l 432 171 l 340 171 l 340 324 l 79 324 l 79 415 l 340 415 m 79 0 l 79 92 l 693 92 l 693 0 l 79 0 z "},"²":{"ha":501,"x_min":32,"x_max":469,"o":"m 156 467 l 422 467 l 443 501 l 469 501 l 443 392 l 39 392 q 32 404 32 392 l 32 413 q 39 421 32 414 q 215 586 138 493 q 317 794 317 707 q 207 914 317 914 q 83 844 146 914 l 58 861 q 261 979 147 979 q 375 935 331 979 q 419 826 419 892 q 321 625 419 735 q 156 467 319 622 z "},"³":{"ha":501,"x_min":53,"x_max":449,"o":"m 169 668 l 169 704 q 275 744 229 708 q 321 828 321 779 q 228 922 321 922 q 114 872 168 922 l 94 888 q 172 953 139 935 q 281 979 218 979 q 374 946 335 979 q 413 861 413 913 q 371 771 413 813 q 279 714 335 735 l 282 711 q 383 690 336 715 q 449 578 449 654 q 390 449 449 507 q 201 379 319 379 q 92 404 136 379 q 53 449 53 425 q 82 476 53 476 q 123 446 92 476 q 208 415 154 415 q 308 453 271 415 q 346 544 346 490 q 169 668 346 678 z "},"´":{"ha":386,"x_min":-10,"x_max":294,"o":"m 39 757 l -10 757 l 176 942 q 250 990 225 990 q 281 976 268 990 q 294 949 294 963 q 271 901 294 917 l 39 757 z "},"¶":{"ha":772,"x_min":57,"x_max":715,"o":"m 715 969 l 715 942 q 624 924 639 932 q 601 867 601 911 l 601 -144 q 624 -201 601 -189 q 715 -219 639 -210 l 715 -247 l 510 -247 l 510 925 l 418 925 l 418 -247 l 213 -247 l 213 -219 q 304 -201 289 -210 q 326 -144 326 -189 l 326 382 q 122 467 193 382 q 57 686 57 546 q 124 903 57 836 q 347 969 192 969 l 715 969 m 326 439 l 326 913 q 201 865 240 913 q 160 683 160 814 q 213 496 160 561 q 326 439 257 439 z "},"¸":{"ha":386,"x_min":49,"x_max":329,"o":"m 215 0 l 174 -89 l 176 -92 q 221 -79 196 -79 q 297 -108 265 -79 q 329 -179 329 -136 q 278 -269 329 -239 q 171 -296 235 -296 q 49 -275 101 -296 l 68 -233 q 156 -251 128 -251 q 213 -236 188 -251 q 238 -192 238 -221 q 175 -136 238 -136 q 125 -144 149 -136 l 106 -137 l 167 0 l 215 0 z "},"¹":{"ha":501,"x_min":83,"x_max":428,"o":"m 317 979 l 317 463 q 376 428 317 428 l 428 428 l 428 392 q 347 393 397 392 q 275 393 297 393 q 114 392 165 393 l 114 428 l 165 428 q 225 463 225 428 l 225 894 q 96 831 139 851 l 83 860 q 299 979 172 901 l 317 979 z "},"º":{"ha":501,"x_min":36,"x_max":465,"o":"m 36 781 q 97 921 36 863 q 246 979 158 979 q 402 925 339 979 q 465 785 465 871 q 404 646 465 704 q 257 588 343 588 q 100 641 164 588 q 36 781 36 694 m 128 789 q 156 678 128 726 q 256 615 190 615 q 349 669 317 615 q 374 776 374 713 q 346 889 374 840 q 246 951 311 951 q 153 897 183 951 q 128 789 128 854 z "},"»":{"ha":772,"x_min":143,"x_max":629,"o":"m 629 339 l 397 113 l 374 132 l 518 339 l 374 546 l 397 565 l 629 339 m 399 339 l 167 113 l 143 132 l 288 339 l 143 546 l 167 565 l 399 339 z "},"¼":{"ha":1158,"x_min":72,"x_max":1056,"o":"m 321 -32 l 257 -32 l 883 990 l 947 990 l 321 -32 m 306 979 l 306 463 q 365 428 306 428 l 417 428 l 417 392 q 336 393 386 392 q 264 393 286 393 q 103 392 154 393 l 103 428 l 154 428 q 214 463 214 428 l 214 894 q 85 831 128 851 l 72 860 q 288 979 161 901 l 306 979 m 881 0 l 881 176 l 617 176 l 617 215 l 921 588 l 963 588 l 963 242 l 1056 242 l 1056 176 l 963 176 l 963 0 l 881 0 m 881 242 l 881 481 l 878 481 l 689 242 l 881 242 z "},"½":{"ha":1158,"x_min":72,"x_max":1111,"o":"m 301 -32 l 238 -32 l 864 990 l 928 990 l 301 -32 m 306 979 l 306 463 q 365 428 306 428 l 417 428 l 417 392 q 336 393 386 392 q 264 393 286 393 q 103 392 154 393 l 103 428 l 154 428 q 214 463 214 428 l 214 894 q 85 831 128 851 l 72 860 q 288 979 161 901 l 306 979 m 1111 110 l 1085 0 l 681 0 q 674 13 674 0 l 674 21 q 681 29 674 22 q 857 194 779 101 q 958 403 958 315 q 849 522 958 522 q 725 453 788 522 l 700 469 q 903 588 789 588 q 1017 544 972 588 q 1061 435 1061 500 q 963 233 1061 343 q 797 75 961 231 l 1064 75 l 1085 110 l 1111 110 z "},"¾":{"ha":1158,"x_min":67,"x_max":1056,"o":"m 321 -32 l 257 -32 l 883 990 l 947 990 l 321 -32 m 183 668 l 183 704 q 289 744 243 708 q 335 828 335 779 q 242 922 335 922 q 128 872 182 922 l 108 888 q 186 953 153 935 q 294 979 232 979 q 388 946 349 979 q 426 861 426 913 q 385 771 426 813 q 293 714 349 735 l 296 711 q 397 690 350 715 q 463 578 463 654 q 404 449 463 507 q 215 379 333 379 q 106 404 150 379 q 67 449 67 425 q 96 476 67 476 q 137 446 106 476 q 222 415 168 415 q 322 453 285 415 q 360 544 360 490 q 183 668 360 678 m 881 0 l 881 176 l 617 176 l 617 215 l 921 588 l 963 588 l 963 242 l 1056 242 l 1056 176 l 963 176 l 963 0 l 881 0 m 881 242 l 881 481 l 878 481 l 689 242 l 881 242 z "},"¿":{"ha":617,"x_min":111,"x_max":464,"o":"m 368 392 l 404 392 l 404 142 q 251 99 310 136 q 176 -37 176 51 q 219 -143 176 -101 q 351 -190 267 -190 q 372 -188 358 -190 q 393 -186 386 -186 q 464 -254 464 -186 q 390 -317 464 -317 q 185 -189 269 -317 q 111 36 111 -78 q 158 189 111 135 q 314 260 206 243 q 356 281 343 264 q 368 347 368 299 l 368 392 m 372 674 q 437 647 410 674 q 464 583 464 621 q 436 519 464 547 q 372 490 408 490 q 308 518 336 490 q 281 583 281 546 q 308 647 281 621 q 372 674 335 674 z "},"À":{"ha":1001,"x_min":25,"x_max":976,"o":"m 525 1008 l 790 276 q 829 167 810 221 q 869 74 856 93 q 976 36 897 36 l 976 0 q 897 1 950 0 q 817 3 843 3 q 614 0 750 3 l 614 36 l 639 36 q 715 82 715 36 q 694 163 715 101 l 625 364 l 299 364 l 268 267 q 231 101 231 147 q 260 44 231 58 q 325 36 276 36 l 357 36 l 357 0 q 276 1 331 0 q 193 3 221 3 q 25 0 136 3 l 25 36 q 111 60 89 43 q 160 135 133 76 q 217 290 165 149 l 394 786 q 424 911 424 868 q 421 947 424 936 q 501 1008 482 976 l 525 1008 m 453 829 l 318 421 l 604 421 l 456 829 l 453 829 m 579 1025 l 531 1025 l 299 1169 q 275 1217 275 1185 q 288 1244 275 1231 q 319 1258 301 1258 q 393 1210 344 1258 l 579 1025 z "},"Á":{"ha":1001,"x_min":25,"x_max":976,"o":"m 525 1008 l 790 276 q 829 167 810 221 q 869 74 856 93 q 976 36 897 36 l 976 0 q 897 1 950 0 q 817 3 843 3 q 614 0 750 3 l 614 36 l 639 36 q 715 82 715 36 q 694 163 715 101 l 625 364 l 299 364 l 268 267 q 231 101 231 147 q 260 44 231 58 q 325 36 276 36 l 357 36 l 357 0 q 276 1 331 0 q 193 3 221 3 q 25 0 136 3 l 25 36 q 111 60 89 43 q 160 135 133 76 q 217 290 165 149 l 394 786 q 424 911 424 868 q 421 947 424 936 q 501 1008 482 976 l 525 1008 m 453 829 l 318 421 l 604 421 l 456 829 l 453 829 m 435 1025 l 386 1025 l 572 1210 q 646 1258 621 1258 q 677 1244 664 1258 q 690 1217 690 1231 q 667 1169 690 1185 l 435 1025 z "},"Â":{"ha":1001,"x_min":25,"x_max":976,"o":"m 525 1008 l 790 276 q 829 167 810 221 q 869 74 856 93 q 976 36 897 36 l 976 0 q 897 1 950 0 q 817 3 843 3 q 614 0 750 3 l 614 36 l 639 36 q 715 82 715 36 q 694 163 715 101 l 625 364 l 299 364 l 268 267 q 231 101 231 147 q 260 44 231 58 q 325 36 276 36 l 357 36 l 357 0 q 276 1 331 0 q 193 3 221 3 q 25 0 136 3 l 25 36 q 111 60 89 43 q 160 135 133 76 q 217 290 165 149 l 394 786 q 424 911 424 868 q 421 947 424 936 q 501 1008 482 976 l 525 1008 m 453 829 l 318 421 l 604 421 l 456 829 l 453 829 m 463 1258 l 540 1258 l 710 1028 l 664 1028 l 501 1175 l 339 1028 l 293 1028 l 463 1258 z "},"Ã":{"ha":1001,"x_min":25,"x_max":976,"o":"m 525 1008 l 790 276 q 829 167 810 221 q 869 74 856 93 q 976 36 897 36 l 976 0 q 897 1 950 0 q 817 3 843 3 q 614 0 750 3 l 614 36 l 639 36 q 715 82 715 36 q 694 163 715 101 l 625 364 l 299 364 l 268 267 q 231 101 231 147 q 260 44 231 58 q 325 36 276 36 l 357 36 l 357 0 q 276 1 331 0 q 193 3 221 3 q 25 0 136 3 l 25 36 q 111 60 89 43 q 160 135 133 76 q 217 290 165 149 l 394 786 q 424 911 424 868 q 421 947 424 936 q 501 1008 482 976 l 525 1008 m 453 829 l 318 421 l 604 421 l 456 829 l 453 829 m 688 1197 l 688 1197 l 725 1197 q 599 1053 699 1053 q 491 1085 563 1053 q 386 1118 419 1118 q 315 1053 336 1118 l 278 1053 q 408 1197 310 1197 q 515 1168 444 1197 q 621 1136 593 1136 q 688 1197 667 1136 z "},"Ä":{"ha":1001,"x_min":25,"x_max":976,"o":"m 525 1008 l 790 276 q 829 167 810 221 q 869 74 856 93 q 976 36 897 36 l 976 0 q 897 1 950 0 q 817 3 843 3 q 614 0 750 3 l 614 36 l 639 36 q 715 82 715 36 q 694 163 715 101 l 625 364 l 299 364 l 268 267 q 231 101 231 147 q 260 44 231 58 q 325 36 276 36 l 357 36 l 357 0 q 276 1 331 0 q 193 3 221 3 q 25 0 136 3 l 25 36 q 111 60 89 43 q 160 135 133 76 q 217 290 165 149 l 394 786 q 424 911 424 868 q 421 947 424 936 q 501 1008 482 976 l 525 1008 m 453 829 l 318 421 l 604 421 l 456 829 l 453 829 m 700 1115 q 681 1072 700 1090 q 636 1053 661 1053 q 592 1072 611 1053 q 572 1115 572 1090 q 592 1160 572 1140 q 636 1179 611 1179 q 681 1160 661 1179 q 700 1115 700 1140 m 431 1115 q 411 1072 431 1090 q 367 1053 392 1053 q 322 1072 340 1053 q 303 1115 303 1090 q 322 1160 303 1140 q 367 1179 340 1179 q 411 1160 392 1179 q 431 1115 431 1140 z "},"Å":{"ha":1001,"x_min":25,"x_max":976,"o":"m 525 1008 l 790 276 q 829 167 810 221 q 869 74 856 93 q 976 36 897 36 l 976 0 q 897 1 950 0 q 817 3 843 3 q 614 0 750 3 l 614 36 l 639 36 q 715 82 715 36 q 694 163 715 101 l 625 364 l 299 364 l 268 267 q 231 101 231 147 q 260 44 231 58 q 325 36 276 36 l 357 36 l 357 0 q 276 1 331 0 q 193 3 221 3 q 25 0 136 3 l 25 36 q 111 60 89 43 q 160 135 133 76 q 217 290 165 149 l 394 786 q 424 911 424 868 q 421 947 424 936 q 501 1008 482 976 l 525 1008 m 453 829 l 318 421 l 604 421 l 456 829 l 453 829 m 367 1176 q 407 1271 367 1231 q 501 1311 447 1311 q 596 1271 556 1311 q 636 1176 636 1231 q 596 1081 636 1122 q 501 1040 556 1040 q 407 1081 447 1040 q 367 1176 367 1122 m 411 1176 q 437 1111 411 1138 q 501 1085 463 1085 q 566 1111 540 1085 q 592 1176 592 1138 q 566 1241 592 1215 q 501 1267 540 1267 q 437 1241 463 1267 q 411 1176 411 1215 z "},"Æ":{"ha":1389,"x_min":25,"x_max":1338,"o":"m 819 925 l 819 531 l 1058 531 q 1126 564 1111 531 q 1138 653 1135 582 l 1165 653 q 1163 588 1165 635 q 1161 507 1161 540 q 1163 438 1161 490 q 1165 360 1165 386 l 1136 360 q 1121 436 1129 421 q 1035 474 1101 474 l 819 474 l 819 190 q 846 71 819 97 q 971 44 872 44 l 1069 44 q 1203 71 1163 44 q 1307 208 1249 100 l 1338 200 q 1293 0 1321 135 q 1081 1 1214 0 q 903 3 947 3 q 716 1 835 3 q 551 0 597 0 l 551 36 l 571 36 q 683 139 683 36 l 683 474 l 425 474 l 272 192 q 222 69 222 100 q 324 36 222 42 l 324 0 q 245 1 297 0 q 167 3 193 3 q 25 0 119 3 l 25 36 q 128 72 88 38 q 192 164 156 97 l 528 782 q 582 900 582 882 q 472 933 582 933 l 472 969 q 833 967 494 969 q 1042 968 908 967 q 1253 969 1192 969 l 1264 763 l 1231 763 q 1168 897 1208 868 q 1008 925 1128 925 l 819 925 m 683 531 l 683 921 l 671 921 l 456 531 l 683 531 z "},"Ç":{"ha":1003,"x_min":81,"x_max":950,"o":"m 935 917 l 949 718 l 914 718 q 617 946 876 946 q 361 851 469 946 q 225 506 225 732 q 351 160 225 300 q 639 24 474 24 q 820 90 743 24 q 918 264 897 156 l 950 256 l 918 53 q 778 3 875 26 q 611 -21 681 -21 q 224 122 368 -21 q 81 501 81 265 q 242 853 81 710 q 607 990 397 990 q 935 917 725 990 m 610 0 l 568 -89 l 571 -92 q 615 -79 590 -79 q 692 -108 660 -79 q 724 -179 724 -136 q 672 -269 724 -239 q 565 -296 629 -296 q 443 -275 496 -296 l 463 -233 q 550 -251 522 -251 q 607 -236 582 -251 q 632 -192 632 -221 q 569 -136 632 -136 q 519 -144 543 -136 l 500 -137 l 561 0 l 610 0 z "},"È":{"ha":849,"x_min":44,"x_max":826,"o":"m 313 925 l 313 531 l 496 531 q 594 578 568 531 q 613 650 606 597 l 640 650 q 635 494 635 589 q 638 419 635 475 q 640 340 642 364 l 613 340 q 576 457 613 433 q 461 474 553 474 l 313 474 l 313 238 q 332 83 313 114 q 456 44 357 44 l 542 44 q 699 75 649 44 q 793 218 754 111 l 826 213 q 769 0 786 86 q 561 1 700 0 q 353 3 422 3 q 44 0 147 3 l 44 36 q 155 63 133 36 q 176 193 176 90 l 176 810 q 153 911 176 892 q 44 933 131 931 l 44 969 q 325 967 138 967 q 725 969 590 967 l 725 763 l 697 756 q 632 888 682 851 q 475 925 582 925 l 313 925 m 528 1025 l 479 1025 l 247 1169 q 224 1217 224 1185 q 237 1244 224 1231 q 268 1258 250 1258 q 342 1210 293 1258 l 528 1025 z "},"É":{"ha":849,"x_min":44,"x_max":826,"o":"m 313 925 l 313 531 l 496 531 q 594 578 568 531 q 613 650 606 597 l 640 650 q 635 494 635 589 q 638 419 635 475 q 640 340 642 364 l 613 340 q 576 457 613 433 q 461 474 553 474 l 313 474 l 313 238 q 332 83 313 114 q 456 44 357 44 l 542 44 q 699 75 649 44 q 793 218 754 111 l 826 213 q 769 0 786 86 q 561 1 700 0 q 353 3 422 3 q 44 0 147 3 l 44 36 q 155 63 133 36 q 176 193 176 90 l 176 810 q 153 911 176 892 q 44 933 131 931 l 44 969 q 325 967 138 967 q 725 969 590 967 l 725 763 l 697 756 q 632 888 682 851 q 475 925 582 925 l 313 925 m 358 1025 l 310 1025 l 496 1210 q 569 1258 544 1258 q 601 1244 588 1258 q 614 1217 614 1231 q 590 1169 614 1185 l 358 1025 z "},"Ê":{"ha":849,"x_min":44,"x_max":826,"o":"m 313 925 l 313 531 l 496 531 q 594 578 568 531 q 613 650 606 597 l 640 650 q 635 494 635 589 q 638 419 635 475 q 640 340 642 364 l 613 340 q 576 457 613 433 q 461 474 553 474 l 313 474 l 313 238 q 332 83 313 114 q 456 44 357 44 l 542 44 q 699 75 649 44 q 793 218 754 111 l 826 213 q 769 0 786 86 q 561 1 700 0 q 353 3 422 3 q 44 0 147 3 l 44 36 q 155 63 133 36 q 176 193 176 90 l 176 810 q 153 911 176 892 q 44 933 131 931 l 44 969 q 325 967 138 967 q 725 969 590 967 l 725 763 l 697 756 q 632 888 682 851 q 475 925 582 925 l 313 925 m 386 1258 l 464 1258 l 633 1028 l 588 1028 l 425 1175 l 263 1028 l 217 1028 l 386 1258 z "},"Ë":{"ha":849,"x_min":44,"x_max":826,"o":"m 313 925 l 313 531 l 496 531 q 594 578 568 531 q 613 650 606 597 l 640 650 q 635 494 635 589 q 638 419 635 475 q 640 340 642 364 l 613 340 q 576 457 613 433 q 461 474 553 474 l 313 474 l 313 238 q 332 83 313 114 q 456 44 357 44 l 542 44 q 699 75 649 44 q 793 218 754 111 l 826 213 q 769 0 786 86 q 561 1 700 0 q 353 3 422 3 q 44 0 147 3 l 44 36 q 155 63 133 36 q 176 193 176 90 l 176 810 q 153 911 176 892 q 44 933 131 931 l 44 969 q 325 967 138 967 q 725 969 590 967 l 725 763 l 697 756 q 632 888 682 851 q 475 925 582 925 l 313 925 m 624 1115 q 604 1072 624 1090 q 560 1053 585 1053 q 515 1072 535 1053 q 496 1115 496 1090 q 515 1160 496 1140 q 560 1179 535 1179 q 604 1160 585 1179 q 624 1115 624 1140 m 354 1115 q 335 1072 354 1090 q 290 1053 315 1053 q 245 1072 264 1053 q 226 1115 226 1090 q 245 1160 226 1140 q 290 1179 264 1179 q 335 1160 315 1179 q 354 1115 354 1140 z "},"Ì":{"ha":461,"x_min":36,"x_max":425,"o":"m 163 136 l 163 833 q 126 919 163 899 q 36 933 104 932 l 36 969 q 228 967 167 967 q 425 969 286 967 l 425 933 q 335 919 357 932 q 299 833 299 899 l 299 136 q 335 50 299 71 q 425 36 357 38 l 425 0 q 330 1 392 0 q 238 3 268 3 q 36 0 175 3 l 36 36 q 126 50 104 38 q 163 136 163 71 m 346 1025 l 297 1025 l 65 1169 q 42 1217 42 1185 q 55 1244 42 1231 q 86 1258 68 1258 q 160 1210 111 1258 l 346 1025 z "},"Í":{"ha":461,"x_min":36,"x_max":425,"o":"m 163 136 l 163 833 q 126 919 163 899 q 36 933 104 932 l 36 969 q 228 967 167 967 q 425 969 286 967 l 425 933 q 335 919 357 932 q 299 833 299 899 l 299 136 q 335 50 299 71 q 425 36 357 38 l 425 0 q 330 1 392 0 q 238 3 268 3 q 36 0 175 3 l 36 36 q 126 50 104 38 q 163 136 163 71 m 164 1025 l 115 1025 l 301 1210 q 375 1258 350 1258 q 406 1244 393 1258 q 419 1217 419 1231 q 396 1169 419 1185 l 164 1025 z "},"Î":{"ha":461,"x_min":22,"x_max":439,"o":"m 163 136 l 163 833 q 126 919 163 899 q 36 933 104 932 l 36 969 q 228 967 167 967 q 425 969 286 967 l 425 933 q 335 919 357 932 q 299 833 299 899 l 299 136 q 335 50 299 71 q 425 36 357 38 l 425 0 q 330 1 392 0 q 238 3 268 3 q 36 0 175 3 l 36 36 q 126 50 104 38 q 163 136 163 71 m 192 1258 l 269 1258 l 439 1028 l 393 1028 l 231 1175 l 68 1028 l 22 1028 l 192 1258 z "},"Ï":{"ha":461,"x_min":32,"x_max":429,"o":"m 163 136 l 163 833 q 126 919 163 899 q 36 933 104 932 l 36 969 q 228 967 167 967 q 425 969 286 967 l 425 933 q 335 919 357 932 q 299 833 299 899 l 299 136 q 335 50 299 71 q 425 36 357 38 l 425 0 q 330 1 392 0 q 238 3 268 3 q 36 0 175 3 l 36 36 q 126 50 104 38 q 163 136 163 71 m 429 1115 q 410 1072 429 1090 q 365 1053 390 1053 q 321 1072 340 1053 q 301 1115 301 1090 q 321 1160 301 1140 q 365 1179 340 1179 q 410 1160 390 1179 q 429 1115 429 1140 m 160 1115 q 140 1072 160 1090 q 96 1053 121 1053 q 51 1072 69 1053 q 32 1115 32 1090 q 51 1160 32 1140 q 96 1179 69 1179 q 140 1160 121 1179 q 160 1115 160 1140 z "},"Ð":{"ha":1081,"x_min":40,"x_max":1000,"o":"m 168 535 l 168 815 q 128 921 168 897 q 40 933 108 932 l 40 969 q 204 967 94 967 q 308 968 228 967 q 444 969 388 969 q 857 818 701 969 q 1000 483 1000 681 q 899 190 1000 319 q 428 0 749 0 q 325 1 392 0 q 226 3 258 3 q 40 0 165 3 l 40 36 q 136 57 115 43 q 168 142 168 76 l 168 469 l 43 469 l 43 535 l 168 535 m 553 535 l 553 469 l 304 469 l 304 164 q 449 44 304 44 q 761 183 656 44 q 847 478 847 299 q 729 800 847 675 q 413 925 611 925 q 304 919 404 925 l 304 535 l 553 535 z "},"Ñ":{"ha":1157,"x_min":21,"x_max":1136,"o":"m 1006 790 l 1006 -12 l 974 -12 l 247 785 l 247 267 q 275 78 247 119 q 413 36 303 36 l 413 0 q 320 1 382 0 q 228 3 258 3 q 43 0 165 3 l 43 36 q 149 58 122 36 q 192 213 192 93 l 192 771 q 151 897 192 860 q 21 933 111 933 l 21 969 q 149 967 107 967 q 206 968 168 967 q 263 969 244 969 q 397 810 297 918 q 607 583 501 697 q 950 213 732 450 l 950 765 q 917 897 950 863 q 782 933 885 932 l 782 969 q 975 967 910 967 q 1056 968 1003 967 q 1136 969 1110 969 l 1136 933 q 1039 913 1063 933 q 1006 790 1006 885 m 765 1197 l 765 1197 l 803 1197 q 676 1053 776 1053 q 569 1085 640 1053 q 464 1118 497 1118 q 393 1053 414 1118 l 356 1053 q 486 1197 388 1197 q 593 1168 522 1197 q 699 1136 671 1136 q 765 1197 744 1136 z "},"Ò":{"ha":1157,"x_min":81,"x_max":1076,"o":"m 81 479 q 217 831 81 681 q 581 990 361 990 q 933 839 786 990 q 1076 490 1076 692 q 940 139 1076 289 q 576 -21 796 -21 q 225 131 371 -21 q 81 479 81 278 m 233 519 q 324 193 233 339 q 593 24 428 24 q 833 142 743 24 q 924 450 924 260 q 833 778 924 631 q 564 946 729 946 q 324 828 414 946 q 233 519 233 710 m 694 1025 l 646 1025 l 414 1169 q 390 1217 390 1185 q 403 1244 390 1231 q 435 1258 417 1258 q 508 1210 460 1258 l 694 1025 z "},"Ó":{"ha":1157,"x_min":81,"x_max":1076,"o":"m 81 479 q 217 831 81 681 q 581 990 361 990 q 933 839 786 990 q 1076 490 1076 692 q 940 139 1076 289 q 576 -21 796 -21 q 225 131 371 -21 q 81 479 81 278 m 233 519 q 324 193 233 339 q 593 24 428 24 q 833 142 743 24 q 924 450 924 260 q 833 778 924 631 q 564 946 729 946 q 324 828 414 946 q 233 519 233 710 m 513 1025 l 464 1025 l 650 1210 q 724 1258 699 1258 q 755 1244 742 1258 q 768 1217 768 1231 q 744 1169 768 1185 l 513 1025 z "},"Ô":{"ha":1157,"x_min":81,"x_max":1076,"o":"m 81 479 q 217 831 81 681 q 581 990 361 990 q 933 839 786 990 q 1076 490 1076 692 q 940 139 1076 289 q 576 -21 796 -21 q 225 131 371 -21 q 81 479 81 278 m 233 519 q 324 193 233 339 q 593 24 428 24 q 833 142 743 24 q 924 450 924 260 q 833 778 924 631 q 564 946 729 946 q 324 828 414 946 q 233 519 233 710 m 540 1258 l 618 1258 l 788 1028 l 742 1028 l 579 1175 l 417 1028 l 371 1028 l 540 1258 z "},"Õ":{"ha":1157,"x_min":81,"x_max":1076,"o":"m 81 479 q 217 831 81 681 q 581 990 361 990 q 933 839 786 990 q 1076 490 1076 692 q 940 139 1076 289 q 576 -21 796 -21 q 225 131 371 -21 q 81 479 81 278 m 233 519 q 324 193 233 339 q 593 24 428 24 q 833 142 743 24 q 924 450 924 260 q 833 778 924 631 q 564 946 729 946 q 324 828 414 946 q 233 519 233 710 m 765 1197 l 765 1197 l 803 1197 q 676 1053 776 1053 q 569 1085 640 1053 q 464 1118 497 1118 q 393 1053 414 1118 l 356 1053 q 486 1197 388 1197 q 593 1168 522 1197 q 699 1136 671 1136 q 765 1197 744 1136 z "},"Ö":{"ha":1157,"x_min":81,"x_max":1076,"o":"m 81 479 q 217 831 81 681 q 581 990 361 990 q 933 839 786 990 q 1076 490 1076 692 q 940 139 1076 289 q 576 -21 796 -21 q 225 131 371 -21 q 81 479 81 278 m 233 519 q 324 193 233 339 q 593 24 428 24 q 833 142 743 24 q 924 450 924 260 q 833 778 924 631 q 564 946 729 946 q 324 828 414 946 q 233 519 233 710 m 778 1115 q 758 1072 778 1090 q 714 1053 739 1053 q 669 1072 689 1053 q 650 1115 650 1090 q 669 1160 650 1140 q 714 1179 689 1179 q 758 1160 739 1179 q 778 1115 778 1140 m 508 1115 q 489 1072 508 1090 q 444 1053 469 1053 q 399 1072 418 1053 q 381 1115 381 1090 q 399 1160 381 1140 q 444 1179 418 1179 q 489 1160 469 1179 q 508 1115 508 1140 z "},"×":{"ha":772,"x_min":79,"x_max":693,"o":"m 386 244 l 144 4 l 79 68 l 324 307 l 79 550 l 146 614 l 386 371 l 626 614 l 693 550 l 449 307 l 693 68 l 628 4 l 386 244 z "},"Ø":{"ha":1157,"x_min":51,"x_max":1106,"o":"m 299 242 l 836 771 q 564 946 733 946 q 324 828 414 946 q 233 519 233 710 q 299 242 233 371 m 863 719 l 326 192 q 593 24 428 24 q 833 142 743 24 q 924 450 924 260 q 863 719 924 589 m 51 -3 l 207 150 q 81 479 81 292 q 217 831 81 681 q 581 990 361 990 q 919 853 778 990 l 1067 997 l 1106 958 l 957 813 q 1076 490 1076 671 q 940 139 1076 289 q 576 -21 796 -21 q 244 111 385 -21 l 90 -42 l 51 -3 z "},"Ù":{"ha":1003,"x_min":17,"x_max":986,"o":"m 986 969 l 986 933 q 890 885 908 933 q 876 710 876 851 l 876 310 q 788 74 876 161 q 514 -21 690 -21 q 243 64 338 -21 q 143 326 143 153 l 143 833 q 107 919 143 899 q 17 933 85 932 l 17 969 q 208 967 147 967 q 406 969 267 967 l 406 933 q 315 919 338 932 q 279 833 279 899 l 279 361 q 550 36 279 36 q 803 310 803 36 l 803 706 q 796 865 803 826 q 760 924 788 911 q 671 933 742 931 l 671 969 q 846 967 788 967 q 916 968 869 967 q 986 969 963 969 m 642 1025 l 593 1025 l 361 1169 q 338 1217 338 1185 q 351 1244 338 1231 q 382 1258 364 1258 q 456 1210 407 1258 l 642 1025 z "},"Ú":{"ha":1003,"x_min":17,"x_max":986,"o":"m 986 969 l 986 933 q 890 885 908 933 q 876 710 876 851 l 876 310 q 788 74 876 161 q 514 -21 690 -21 q 243 64 338 -21 q 143 326 143 153 l 143 833 q 107 919 143 899 q 17 933 85 932 l 17 969 q 208 967 147 967 q 406 969 267 967 l 406 933 q 315 919 338 932 q 279 833 279 899 l 279 361 q 550 36 279 36 q 803 310 803 36 l 803 706 q 796 865 803 826 q 760 924 788 911 q 671 933 742 931 l 671 969 q 846 967 788 967 q 916 968 869 967 q 986 969 963 969 m 447 1025 l 399 1025 l 585 1210 q 658 1258 633 1258 q 690 1244 676 1258 q 703 1217 703 1231 q 679 1169 703 1185 l 447 1025 z "},"Û":{"ha":1003,"x_min":17,"x_max":986,"o":"m 986 969 l 986 933 q 890 885 908 933 q 876 710 876 851 l 876 310 q 788 74 876 161 q 514 -21 690 -21 q 243 64 338 -21 q 143 326 143 153 l 143 833 q 107 919 143 899 q 17 933 85 932 l 17 969 q 208 967 147 967 q 406 969 267 967 l 406 933 q 315 919 338 932 q 279 833 279 899 l 279 361 q 550 36 279 36 q 803 310 803 36 l 803 706 q 796 865 803 826 q 760 924 788 911 q 671 933 742 931 l 671 969 q 846 967 788 967 q 916 968 869 967 q 986 969 963 969 m 463 1258 l 540 1258 l 710 1028 l 664 1028 l 501 1175 l 339 1028 l 293 1028 l 463 1258 z "},"Ü":{"ha":1003,"x_min":17,"x_max":986,"o":"m 986 969 l 986 933 q 890 885 908 933 q 876 710 876 851 l 876 310 q 788 74 876 161 q 514 -21 690 -21 q 243 64 338 -21 q 143 326 143 153 l 143 833 q 107 919 143 899 q 17 933 85 932 l 17 969 q 208 967 147 967 q 406 969 267 967 l 406 933 q 315 919 338 932 q 279 833 279 899 l 279 361 q 550 36 279 36 q 803 310 803 36 l 803 706 q 796 865 803 826 q 760 924 788 911 q 671 933 742 931 l 671 969 q 846 967 788 967 q 916 968 869 967 q 986 969 963 969 m 714 1115 q 694 1072 714 1090 q 650 1053 675 1053 q 606 1072 625 1053 q 586 1115 586 1090 q 606 1160 586 1140 q 650 1179 625 1179 q 694 1160 675 1179 q 714 1115 714 1140 m 444 1115 q 425 1072 444 1090 q 381 1053 406 1053 q 335 1072 354 1053 q 317 1115 317 1090 q 335 1160 317 1140 q 381 1179 354 1179 q 425 1160 406 1179 q 444 1115 444 1140 z "},"Ý":{"ha":1003,"x_min":33,"x_max":969,"o":"m 589 494 l 589 136 q 625 50 589 71 q 715 36 647 38 l 715 0 q 518 3 576 3 q 326 0 457 3 l 326 36 q 417 50 394 38 q 453 136 453 71 l 453 472 l 163 872 q 116 920 133 913 q 33 933 99 928 l 33 969 q 226 967 86 967 q 312 968 256 967 q 396 969 368 969 l 396 933 q 318 904 318 933 q 364 818 318 882 l 558 544 l 740 793 q 794 893 794 867 q 772 928 794 921 q 696 933 756 933 l 696 969 q 856 967 801 967 q 912 968 874 967 q 969 969 950 969 l 969 933 q 901 908 931 932 q 854 853 885 894 l 589 494 m 465 1025 l 417 1025 l 603 1210 q 676 1258 651 1258 q 708 1244 694 1258 q 721 1217 721 1231 q 697 1169 721 1185 l 465 1025 z "},"Þ":{"ha":772,"x_min":36,"x_max":731,"o":"m 163 136 l 163 797 q 140 906 163 879 q 40 933 117 933 l 40 969 q 242 967 179 967 q 334 968 272 967 q 429 969 396 969 l 429 933 q 342 914 364 932 q 304 789 306 885 q 382 793 371 793 q 610 735 515 793 q 731 514 731 660 q 636 314 731 396 q 432 236 547 236 q 299 239 338 236 l 299 136 q 335 50 299 71 q 425 36 357 38 l 425 0 q 330 1 392 0 q 238 3 268 3 q 36 0 175 3 l 36 36 q 126 50 104 38 q 163 136 163 71 m 299 746 l 299 285 q 396 281 332 281 q 543 353 490 281 q 586 499 586 413 q 507 696 586 629 q 351 749 443 749 q 299 746 335 749 z "},"ß":{"ha":772,"x_min":32,"x_max":725,"o":"m 129 81 l 129 543 l 39 543 l 39 563 l 122 614 q 219 922 122 794 q 500 1061 325 1061 q 654 1018 592 1061 q 725 881 725 968 q 656 738 725 800 q 526 643 592 690 q 457 542 457 593 q 521 444 457 494 q 640 351 636 356 q 704 203 704 288 q 640 43 704 107 q 481 -21 575 -21 q 399 0 438 -21 q 353 65 353 25 q 365 97 353 82 q 393 111 376 111 q 452 67 429 111 q 510 24 475 24 q 585 58 557 24 q 613 143 613 93 q 549 264 613 208 q 429 356 489 310 q 365 479 365 413 q 432 617 365 557 q 556 711 493 664 q 622 843 622 769 q 572 961 622 918 q 447 1004 522 1004 q 313 953 367 1004 q 240 750 240 886 l 240 69 q 306 36 240 36 l 313 36 l 313 0 q 190 3 304 3 q 32 0 118 3 l 32 36 l 71 36 q 129 81 129 36 z "},"à":{"ha":694,"x_min":58,"x_max":646,"o":"m 421 125 l 421 308 q 268 256 344 282 q 169 144 169 210 q 199 74 169 104 q 268 44 228 44 q 351 69 311 44 q 421 125 372 82 m 633 78 l 646 54 q 508 -21 565 -21 q 444 13 468 -21 q 422 82 425 40 q 208 -21 310 -21 q 100 19 143 -21 q 58 114 57 58 q 128 235 61 193 q 421 349 182 267 l 421 440 q 286 560 421 560 q 181 463 183 560 q 155 420 179 436 q 103 404 131 404 q 78 432 78 404 q 121 519 78 482 q 238 590 151 546 q 299 622 268 606 q 363 635 328 635 q 471 606 418 635 q 532 518 532 571 l 532 133 q 582 54 532 54 q 633 78 614 54 m 463 757 l 414 757 l 182 901 q 158 949 158 917 q 172 976 158 963 q 203 990 185 990 q 276 942 228 990 l 463 757 z "},"á":{"ha":694,"x_min":58,"x_max":646,"o":"m 421 125 l 421 308 q 268 256 344 282 q 169 144 169 210 q 199 74 169 104 q 268 44 228 44 q 351 69 311 44 q 421 125 372 82 m 633 78 l 646 54 q 508 -21 565 -21 q 444 13 468 -21 q 422 82 425 40 q 208 -21 310 -21 q 100 19 143 -21 q 58 114 57 58 q 128 235 61 193 q 421 349 182 267 l 421 440 q 286 560 421 560 q 181 463 183 560 q 155 420 179 436 q 103 404 131 404 q 78 432 78 404 q 121 519 78 482 q 238 590 151 546 q 299 622 268 606 q 363 635 328 635 q 471 606 418 635 q 532 518 532 571 l 532 133 q 582 54 532 54 q 633 78 614 54 m 281 757 l 232 757 l 418 942 q 492 990 467 990 q 523 976 510 990 q 536 949 536 963 q 513 901 536 917 l 281 757 z "},"â":{"ha":694,"x_min":58,"x_max":646,"o":"m 421 125 l 421 308 q 268 256 344 282 q 169 144 169 210 q 199 74 169 104 q 268 44 228 44 q 351 69 311 44 q 421 125 372 82 m 633 78 l 646 54 q 508 -21 565 -21 q 444 13 468 -21 q 422 82 425 40 q 208 -21 310 -21 q 100 19 143 -21 q 58 114 57 58 q 128 235 61 193 q 421 349 182 267 l 421 440 q 286 560 421 560 q 181 463 183 560 q 155 420 179 436 q 103 404 131 404 q 78 432 78 404 q 121 519 78 482 q 238 590 151 546 q 299 622 268 606 q 363 635 328 635 q 471 606 418 635 q 532 518 532 571 l 532 133 q 582 54 532 54 q 633 78 614 54 m 308 990 l 386 990 l 556 760 l 510 760 l 347 907 l 185 760 l 139 760 l 308 990 z "},"ã":{"ha":694,"x_min":58,"x_max":646,"o":"m 421 125 l 421 308 q 268 256 344 282 q 169 144 169 210 q 199 74 169 104 q 268 44 228 44 q 351 69 311 44 q 421 125 372 82 m 633 78 l 646 54 q 508 -21 565 -21 q 444 13 468 -21 q 422 82 425 40 q 208 -21 310 -21 q 100 19 143 -21 q 58 114 57 58 q 128 235 61 193 q 421 349 182 267 l 421 440 q 286 560 421 560 q 181 463 183 560 q 155 420 179 436 q 103 404 131 404 q 78 432 78 404 q 121 519 78 482 q 238 590 151 546 q 299 622 268 606 q 363 635 328 635 q 471 606 418 635 q 532 518 532 571 l 532 133 q 582 54 532 54 q 633 78 614 54 m 533 929 l 533 929 l 571 929 q 444 785 544 785 q 337 817 408 785 q 232 850 265 850 q 161 785 182 850 l 124 785 q 254 929 156 929 q 361 900 290 929 q 467 868 439 868 q 533 929 513 868 z "},"ä":{"ha":694,"x_min":58,"x_max":646,"o":"m 421 125 l 421 308 q 268 256 344 282 q 169 144 169 210 q 199 74 169 104 q 268 44 228 44 q 351 69 311 44 q 421 125 372 82 m 633 78 l 646 54 q 508 -21 565 -21 q 444 13 468 -21 q 422 82 425 40 q 208 -21 310 -21 q 100 19 143 -21 q 58 114 57 58 q 128 235 61 193 q 421 349 182 267 l 421 440 q 286 560 421 560 q 181 463 183 560 q 155 420 179 436 q 103 404 131 404 q 78 432 78 404 q 121 519 78 482 q 238 590 151 546 q 299 622 268 606 q 363 635 328 635 q 471 606 418 635 q 532 518 532 571 l 532 133 q 582 54 532 54 q 633 78 614 54 m 546 847 q 526 803 546 822 q 482 785 507 785 q 438 803 457 785 q 418 847 418 822 q 438 892 418 872 q 482 911 457 911 q 526 892 507 911 q 546 847 546 872 m 276 847 q 257 803 276 822 q 213 785 238 785 q 167 803 186 785 q 149 847 149 822 q 167 892 149 872 q 213 911 186 911 q 257 892 238 911 q 276 847 276 872 z "},"å":{"ha":694,"x_min":58,"x_max":646,"o":"m 421 125 l 421 308 q 268 256 344 282 q 169 144 169 210 q 199 74 169 104 q 268 44 228 44 q 351 69 311 44 q 421 125 372 82 m 633 78 l 646 54 q 508 -21 565 -21 q 444 13 468 -21 q 422 82 425 40 q 208 -21 310 -21 q 100 19 143 -21 q 58 114 57 58 q 128 235 61 193 q 421 349 182 267 l 421 440 q 286 560 421 560 q 181 463 183 560 q 155 420 179 436 q 103 404 131 404 q 78 432 78 404 q 121 519 78 482 q 238 590 151 546 q 299 622 268 606 q 363 635 328 635 q 471 606 418 635 q 532 518 532 571 l 532 133 q 582 54 532 54 q 633 78 614 54 m 213 856 q 253 950 213 910 q 347 990 293 990 q 442 950 401 990 q 482 856 482 910 q 442 760 482 801 q 347 719 401 719 q 253 760 293 719 q 213 856 213 801 m 257 856 q 283 790 257 817 q 347 764 308 764 q 412 790 386 764 q 438 856 438 817 q 412 920 438 894 q 347 946 386 946 q 283 920 308 946 q 257 856 257 894 z "},"æ":{"ha":1003,"x_min":58,"x_max":953,"o":"m 933 175 l 953 153 q 674 -21 821 -21 q 469 110 532 -21 q 353 19 394 44 q 213 -21 283 -21 q 103 18 147 -21 q 58 121 58 57 q 97 210 58 179 q 211 257 128 232 l 440 325 l 440 419 q 311 560 440 560 q 214 508 251 560 q 199 453 207 500 q 172 408 192 414 q 106 390 111 390 q 82 415 82 390 q 126 514 82 476 q 218 565 144 529 q 294 610 256 588 q 379 635 339 635 q 540 532 510 635 q 753 635 610 635 q 889 596 832 635 q 953 476 953 551 q 942 443 953 453 q 871 415 926 432 l 543 317 l 543 289 q 736 82 543 78 q 933 175 843 85 m 440 236 l 440 285 l 256 228 q 207 206 221 217 q 186 147 186 186 q 218 68 186 97 q 276 44 243 44 q 375 82 329 44 q 440 236 440 133 m 543 358 l 740 421 q 825 488 825 447 q 792 561 825 532 q 722 590 758 590 q 588 517 638 590 q 543 358 543 451 z "},"ç":{"ha":617,"x_min":35,"x_max":582,"o":"m 558 147 l 582 124 q 311 -21 458 -21 q 119 67 203 -21 q 35 267 35 156 q 133 527 35 419 q 379 635 231 635 q 500 614 447 635 q 567 539 567 589 q 514 478 567 478 q 468 507 492 478 q 421 561 435 550 q 328 590 385 590 q 192 511 244 590 q 146 351 146 440 q 213 161 146 240 q 389 82 279 82 q 558 147 472 82 m 356 0 l 314 -89 l 317 -92 q 361 -79 336 -79 q 438 -108 406 -79 q 469 -179 469 -136 q 418 -269 469 -239 q 311 -296 375 -296 q 189 -275 242 -296 l 208 -233 q 296 -251 268 -251 q 353 -236 328 -251 q 378 -192 378 -221 q 315 -136 378 -136 q 265 -144 289 -136 l 246 -137 l 307 0 l 356 0 z "},"è":{"ha":617,"x_min":47,"x_max":569,"o":"m 549 383 l 158 383 q 158 303 154 365 q 222 133 164 203 q 363 63 281 63 q 550 156 457 63 l 569 136 q 313 -21 451 -21 q 97 97 168 -21 q 47 282 47 181 q 151 561 47 464 q 328 635 231 635 q 488 581 421 635 q 563 417 561 521 q 561 392 563 401 l 549 383 m 163 428 l 404 428 q 443 463 443 428 q 411 554 443 518 q 322 590 379 590 q 217 547 260 590 q 163 428 175 504 m 436 757 l 388 757 l 156 901 q 132 949 132 917 q 145 976 132 963 q 176 990 158 990 q 250 942 201 990 l 436 757 z "},"é":{"ha":617,"x_min":47,"x_max":569,"o":"m 549 383 l 158 383 q 158 303 154 365 q 222 133 164 203 q 363 63 281 63 q 550 156 457 63 l 569 136 q 313 -21 451 -21 q 97 97 168 -21 q 47 282 47 181 q 151 561 47 464 q 328 635 231 635 q 488 581 421 635 q 563 417 561 521 q 561 392 563 401 l 549 383 m 163 428 l 404 428 q 443 463 443 428 q 411 554 443 518 q 322 590 379 590 q 217 547 260 590 q 163 428 175 504 m 242 757 l 193 757 l 379 942 q 453 990 428 990 q 484 976 471 990 q 497 949 497 963 q 474 901 497 917 l 242 757 z "},"ê":{"ha":617,"x_min":47,"x_max":569,"o":"m 549 383 l 158 383 q 158 303 154 365 q 222 133 164 203 q 363 63 281 63 q 550 156 457 63 l 569 136 q 313 -21 451 -21 q 97 97 168 -21 q 47 282 47 181 q 151 561 47 464 q 328 635 231 635 q 488 581 421 635 q 563 417 561 521 q 561 392 563 401 l 549 383 m 163 428 l 404 428 q 443 463 443 428 q 411 554 443 518 q 322 590 379 590 q 217 547 260 590 q 163 428 175 504 m 269 990 l 347 990 l 517 760 l 471 760 l 308 907 l 146 760 l 100 760 l 269 990 z "},"ë":{"ha":617,"x_min":47,"x_max":569,"o":"m 549 383 l 158 383 q 158 303 154 365 q 222 133 164 203 q 363 63 281 63 q 550 156 457 63 l 569 136 q 313 -21 451 -21 q 97 97 168 -21 q 47 282 47 181 q 151 561 47 464 q 328 635 231 635 q 488 581 421 635 q 563 417 561 521 q 561 392 563 401 l 549 383 m 163 428 l 404 428 q 443 463 443 428 q 411 554 443 518 q 322 590 379 590 q 217 547 260 590 q 163 428 175 504 m 507 847 q 488 803 507 822 q 443 785 468 785 q 399 803 418 785 q 379 847 379 822 q 399 892 379 872 q 443 911 418 911 q 488 892 468 911 q 507 847 507 872 m 238 847 q 218 803 238 822 q 174 785 199 785 q 128 803 147 785 q 110 847 110 822 q 128 892 110 872 q 174 911 147 911 q 218 892 199 911 q 238 847 238 872 z "},"ì":{"ha":386,"x_min":-8,"x_max":342,"o":"m 44 0 l 44 36 l 71 36 q 119 42 107 36 q 138 82 138 51 l 138 458 q 121 519 138 500 q 65 556 110 531 l 65 578 q 214 626 201 618 q 239 635 226 635 q 249 615 249 635 l 249 82 q 269 42 249 51 q 318 36 282 36 l 342 36 l 342 0 q 269 1 318 0 q 196 3 221 3 q 44 0 147 3 m 296 757 l 247 757 l 15 901 q -8 949 -8 917 q 5 976 -8 963 q 36 990 18 990 q 110 942 61 990 l 296 757 z "},"í":{"ha":386,"x_min":44,"x_max":382,"o":"m 44 0 l 44 36 l 71 36 q 119 42 107 36 q 138 82 138 51 l 138 458 q 121 519 138 500 q 65 556 110 531 l 65 578 q 214 626 201 618 q 239 635 226 635 q 249 615 249 635 l 249 82 q 269 42 249 51 q 318 36 282 36 l 342 36 l 342 0 q 269 1 318 0 q 196 3 221 3 q 44 0 147 3 m 126 757 l 78 757 l 264 942 q 338 990 313 990 q 369 976 356 990 q 382 949 382 963 q 358 901 382 917 l 126 757 z "},"î":{"ha":386,"x_min":-15,"x_max":401,"o":"m 44 0 l 44 36 l 71 36 q 119 42 107 36 q 138 82 138 51 l 138 458 q 121 519 138 500 q 65 556 110 531 l 65 578 q 214 626 201 618 q 239 635 226 635 q 249 615 249 635 l 249 82 q 269 42 249 51 q 318 36 282 36 l 342 36 l 342 0 q 269 1 318 0 q 196 3 221 3 q 44 0 147 3 m 154 990 l 232 990 l 401 760 l 356 760 l 193 907 l 31 760 l -15 760 l 154 990 z "},"ï":{"ha":386,"x_min":-6,"x_max":392,"o":"m 44 0 l 44 36 l 71 36 q 119 42 107 36 q 138 82 138 51 l 138 458 q 121 519 138 500 q 65 556 110 531 l 65 578 q 214 626 201 618 q 239 635 226 635 q 249 615 249 635 l 249 82 q 269 42 249 51 q 318 36 282 36 l 342 36 l 342 0 q 269 1 318 0 q 196 3 221 3 q 44 0 147 3 m 392 847 q 372 803 392 822 q 328 785 353 785 q 283 803 303 785 q 264 847 264 822 q 283 892 264 872 q 328 911 303 911 q 372 892 353 911 q 392 847 392 872 m 122 847 q 103 803 122 822 q 58 785 83 785 q 13 803 32 785 q -6 847 -6 822 q 13 892 -6 872 q 58 911 32 911 q 103 892 83 911 q 122 847 122 872 z "},"ð":{"ha":772,"x_min":58,"x_max":714,"o":"m 186 318 q 235 124 186 214 q 393 15 294 15 q 542 111 489 15 q 586 296 586 190 q 538 490 586 400 q 378 599 478 599 q 231 503 283 599 q 186 318 186 424 m 542 1061 l 582 1017 l 436 922 q 635 683 558 822 q 714 403 714 539 q 621 81 714 192 q 394 -21 536 -21 q 156 69 253 -21 q 58 304 58 160 q 151 537 58 439 q 376 635 244 635 q 550 567 474 635 l 553 569 q 494 709 550 619 q 361 875 438 799 l 203 772 l 163 817 l 315 915 q 128 1017 218 996 l 154 1061 q 386 961 271 1043 l 542 1061 z "},"ñ":{"ha":772,"x_min":38,"x_max":735,"o":"m 129 82 l 129 450 q 114 504 129 488 q 49 542 99 521 l 49 568 q 232 635 107 588 q 240 621 240 635 l 240 531 q 356 604 315 585 q 481 635 418 635 q 640 440 640 635 l 640 82 q 661 42 640 51 q 710 36 674 36 l 735 36 l 735 0 q 662 1 711 0 q 588 3 613 3 q 438 0 538 3 l 438 36 l 463 36 q 511 42 499 36 q 529 82 529 51 l 529 442 q 401 560 529 560 q 240 493 340 560 l 240 82 q 261 42 240 51 q 310 36 274 36 l 335 36 l 335 0 q 262 1 311 0 q 188 3 213 3 q 38 0 138 3 l 38 36 l 63 36 q 111 42 99 36 q 129 82 129 51 m 572 929 l 572 929 l 610 929 q 483 785 583 785 q 376 817 447 785 q 271 850 304 850 q 200 785 221 850 l 163 785 q 293 929 194 929 q 400 900 329 929 q 506 868 478 868 q 572 929 551 868 z "},"ò":{"ha":772,"x_min":58,"x_max":714,"o":"m 58 304 q 149 538 58 442 q 376 635 239 635 q 619 545 524 635 q 714 310 714 456 q 620 77 714 175 q 394 -21 526 -21 q 156 69 253 -21 q 58 304 58 160 m 186 318 q 235 124 186 214 q 393 15 294 15 q 542 111 489 15 q 586 296 586 190 q 538 490 586 400 q 378 599 478 599 q 231 503 283 599 q 186 318 186 424 m 501 757 l 453 757 l 221 901 q 197 949 197 917 q 210 976 197 963 q 242 990 224 990 q 315 942 267 990 l 501 757 z "},"ó":{"ha":772,"x_min":58,"x_max":714,"o":"m 58 304 q 149 538 58 442 q 376 635 239 635 q 619 545 524 635 q 714 310 714 456 q 620 77 714 175 q 394 -21 526 -21 q 156 69 253 -21 q 58 304 58 160 m 186 318 q 235 124 186 214 q 393 15 294 15 q 542 111 489 15 q 586 296 586 190 q 538 490 586 400 q 378 599 478 599 q 231 503 283 599 q 186 318 186 424 m 307 757 l 258 757 l 444 942 q 518 990 493 990 q 549 976 536 990 q 563 949 563 963 q 539 901 563 917 l 307 757 z "},"ô":{"ha":772,"x_min":58,"x_max":714,"o":"m 58 304 q 149 538 58 442 q 376 635 239 635 q 619 545 524 635 q 714 310 714 456 q 620 77 714 175 q 394 -21 526 -21 q 156 69 253 -21 q 58 304 58 160 m 186 318 q 235 124 186 214 q 393 15 294 15 q 542 111 489 15 q 586 296 586 190 q 538 490 586 400 q 378 599 478 599 q 231 503 283 599 q 186 318 186 424 m 347 990 l 425 990 l 594 760 l 549 760 l 386 907 l 224 760 l 178 760 l 347 990 z "},"õ":{"ha":772,"x_min":58,"x_max":714,"o":"m 58 304 q 149 538 58 442 q 376 635 239 635 q 619 545 524 635 q 714 310 714 456 q 620 77 714 175 q 394 -21 526 -21 q 156 69 253 -21 q 58 304 58 160 m 186 318 q 235 124 186 214 q 393 15 294 15 q 542 111 489 15 q 586 296 586 190 q 538 490 586 400 q 378 599 478 599 q 231 503 283 599 q 186 318 186 424 m 572 929 l 572 929 l 610 929 q 483 785 583 785 q 376 817 447 785 q 271 850 304 850 q 200 785 221 850 l 163 785 q 293 929 194 929 q 400 900 329 929 q 506 868 478 868 q 572 929 551 868 z "},"ö":{"ha":772,"x_min":58,"x_max":714,"o":"m 58 304 q 149 538 58 442 q 376 635 239 635 q 619 545 524 635 q 714 310 714 456 q 620 77 714 175 q 394 -21 526 -21 q 156 69 253 -21 q 58 304 58 160 m 186 318 q 235 124 186 214 q 393 15 294 15 q 542 111 489 15 q 586 296 586 190 q 538 490 586 400 q 378 599 478 599 q 231 503 283 599 q 186 318 186 424 m 585 847 q 565 803 585 822 q 521 785 546 785 q 476 803 496 785 q 457 847 457 822 q 476 892 457 872 q 521 911 496 911 q 565 892 546 911 q 585 847 585 872 m 315 847 q 296 803 315 822 q 251 785 276 785 q 206 803 225 785 q 188 847 188 822 q 206 892 188 872 q 251 911 225 911 q 296 892 276 911 q 315 847 315 872 z "},"÷":{"ha":772,"x_min":79,"x_max":693,"o":"m 693 261 l 79 261 l 79 353 l 693 353 l 693 261 m 294 71 q 322 136 294 110 q 388 163 349 163 q 451 135 424 163 q 478 71 478 108 q 451 7 478 35 q 388 -21 424 -21 q 322 6 349 -21 q 294 71 294 33 m 294 543 q 322 608 294 582 q 386 635 349 635 q 451 608 424 635 q 478 543 478 581 q 451 479 478 507 q 386 451 424 451 q 322 478 349 451 q 294 543 294 506 z "},"ø":{"ha":772,"x_min":26,"x_max":746,"o":"m 214 169 l 540 481 q 378 599 485 599 q 231 503 283 599 q 186 318 186 424 q 214 169 186 240 m 560 439 l 235 128 q 393 15 292 15 q 542 111 489 15 q 586 296 586 190 q 560 439 586 364 m 710 643 l 746 615 l 643 518 q 714 310 714 432 q 620 77 714 175 q 394 -21 526 -21 q 165 61 258 -21 l 58 -42 l 26 -10 l 135 93 q 58 304 58 181 q 149 538 58 442 q 376 635 239 635 q 613 550 521 635 l 710 643 z "},"ù":{"ha":772,"x_min":46,"x_max":735,"o":"m 640 589 l 640 76 q 679 50 640 50 q 707 51 688 50 q 735 51 725 51 l 735 22 q 535 -21 644 14 l 528 -17 l 528 96 q 411 13 453 35 q 282 -21 349 -21 q 178 18 219 -21 q 129 144 129 63 l 129 500 q 46 578 129 571 l 46 604 q 147 610 74 606 q 225 614 217 614 q 240 574 240 614 l 240 215 q 361 54 240 54 q 529 139 428 54 l 529 513 q 413 569 529 538 l 413 594 q 563 607 486 600 q 629 614 626 614 q 640 589 640 614 m 501 757 l 453 757 l 221 901 q 197 949 197 917 q 210 976 197 963 q 242 990 224 990 q 315 942 267 990 l 501 757 z "},"ú":{"ha":772,"x_min":46,"x_max":735,"o":"m 640 589 l 640 76 q 679 50 640 50 q 707 51 688 50 q 735 51 725 51 l 735 22 q 535 -21 644 14 l 528 -17 l 528 96 q 411 13 453 35 q 282 -21 349 -21 q 178 18 219 -21 q 129 144 129 63 l 129 500 q 46 578 129 571 l 46 604 q 147 610 74 606 q 225 614 217 614 q 240 574 240 614 l 240 215 q 361 54 240 54 q 529 139 428 54 l 529 513 q 413 569 529 538 l 413 594 q 563 607 486 600 q 629 614 626 614 q 640 589 640 614 m 332 757 l 283 757 l 469 942 q 543 990 518 990 q 574 976 561 990 q 588 949 588 963 q 564 901 588 917 l 332 757 z "},"û":{"ha":772,"x_min":46,"x_max":735,"o":"m 640 589 l 640 76 q 679 50 640 50 q 707 51 688 50 q 735 51 725 51 l 735 22 q 535 -21 644 14 l 528 -17 l 528 96 q 411 13 453 35 q 282 -21 349 -21 q 178 18 219 -21 q 129 144 129 63 l 129 500 q 46 578 129 571 l 46 604 q 147 610 74 606 q 225 614 217 614 q 240 574 240 614 l 240 215 q 361 54 240 54 q 529 139 428 54 l 529 513 q 413 569 529 538 l 413 594 q 563 607 486 600 q 629 614 626 614 q 640 589 640 614 m 322 990 l 400 990 l 569 760 l 524 760 l 361 907 l 199 760 l 153 760 l 322 990 z "},"ü":{"ha":772,"x_min":46,"x_max":735,"o":"m 640 589 l 640 76 q 679 50 640 50 q 707 51 688 50 q 735 51 725 51 l 735 22 q 535 -21 644 14 l 528 -17 l 528 96 q 411 13 453 35 q 282 -21 349 -21 q 178 18 219 -21 q 129 144 129 63 l 129 500 q 46 578 129 571 l 46 604 q 147 610 74 606 q 225 614 217 614 q 240 574 240 614 l 240 215 q 361 54 240 54 q 529 139 428 54 l 529 513 q 413 569 529 538 l 413 594 q 563 607 486 600 q 629 614 626 614 q 640 589 640 614 m 560 847 q 540 803 560 822 q 496 785 521 785 q 451 803 471 785 q 432 847 432 822 q 451 892 432 872 q 496 911 471 911 q 540 892 521 911 q 560 847 560 872 m 290 847 q 271 803 290 822 q 226 785 251 785 q 181 803 200 785 q 163 847 163 822 q 181 892 163 872 q 226 911 200 911 q 271 892 251 911 q 290 847 290 872 z "},"ý":{"ha":694,"x_min":24,"x_max":671,"o":"m 24 578 l 24 614 q 185 611 132 611 q 247 613 206 611 q 310 614 289 614 l 310 578 q 261 572 268 574 q 233 540 233 564 q 297 360 233 518 q 374 167 368 188 l 376 167 q 456 358 382 182 q 514 519 514 496 q 436 578 514 578 l 436 614 q 567 611 522 611 q 671 614 601 611 l 671 578 q 600 554 626 579 q 561 489 581 536 l 247 -247 q 158 -317 218 -317 q 109 -297 128 -317 q 90 -250 90 -278 q 110 -202 90 -224 q 157 -181 129 -181 q 214 -201 192 -181 q 311 22 278 -67 q 111 526 132 489 q 24 578 81 583 m 301 757 l 253 757 l 439 942 q 513 990 488 990 q 544 976 531 990 q 557 949 557 963 q 533 901 557 917 l 301 757 z "},"þ":{"ha":772,"x_min":26,"x_max":714,"o":"m 26 -317 l 26 -281 l 79 -281 q 138 -236 138 -281 l 138 856 q 121 938 138 918 q 64 964 110 950 l 64 986 q 219 1050 117 1003 q 239 1061 238 1061 q 249 1042 249 1061 l 249 532 q 458 635 363 635 q 644 542 569 635 q 714 339 714 454 q 614 87 714 194 q 372 -21 514 -21 q 249 6 306 -21 l 249 -247 q 314 -281 249 -281 l 376 -281 l 376 -317 q 199 -314 257 -314 q 26 -317 140 -314 m 249 497 l 249 119 q 397 24 300 24 q 550 108 492 24 q 603 282 603 183 q 544 463 603 389 q 372 543 479 543 q 249 497 311 543 z "},"ÿ":{"ha":694,"x_min":24,"x_max":671,"o":"m 24 578 l 24 614 q 185 611 132 611 q 247 613 206 611 q 310 614 289 614 l 310 578 q 261 572 268 574 q 233 540 233 564 q 297 360 233 518 q 374 167 368 188 l 376 167 q 456 358 382 182 q 514 519 514 496 q 436 578 514 578 l 436 614 q 567 611 522 611 q 671 614 601 611 l 671 578 q 600 554 626 579 q 561 489 581 536 l 247 -247 q 158 -317 218 -317 q 109 -297 128 -317 q 90 -250 90 -278 q 110 -202 90 -224 q 157 -181 129 -181 q 214 -201 192 -181 q 311 22 278 -67 q 111 526 132 489 q 24 578 81 583 m 546 847 q 526 803 546 822 q 482 785 507 785 q 438 803 457 785 q 418 847 418 822 q 438 892 418 872 q 482 911 457 911 q 526 892 507 911 q 546 847 546 872 m 276 847 q 257 803 276 822 q 213 785 238 785 q 167 803 186 785 q 149 847 149 822 q 167 892 149 872 q 213 911 186 911 q 257 892 238 911 q 276 847 276 872 z "},"ı":{"ha":386,"x_min":44,"x_max":342,"o":"m 44 0 l 44 36 l 71 36 q 119 42 107 36 q 138 82 138 51 l 138 458 q 121 519 138 500 q 65 556 110 531 l 65 578 q 214 626 201 618 q 239 635 226 635 q 249 615 249 635 l 249 82 q 269 42 249 51 q 318 36 282 36 l 342 36 l 342 0 q 269 1 318 0 q 196 3 221 3 q 44 0 147 3 z "},"Ł":{"ha":849,"x_min":50,"x_max":822,"o":"m 176 129 l 176 375 l 50 283 l 50 361 l 176 453 l 176 833 q 140 919 176 899 q 50 933 118 932 l 50 969 q 242 967 181 967 q 439 969 300 967 l 439 933 q 349 919 371 932 q 313 833 313 899 l 313 553 l 610 769 l 610 692 l 313 475 l 313 190 q 349 79 313 107 q 532 44 392 44 q 706 81 653 44 q 792 218 760 117 l 822 213 l 771 0 q 418 3 653 3 q 50 0 172 3 l 50 36 q 176 129 176 29 z "},"ł":{"ha":386,"x_min":44,"x_max":342,"o":"m 44 0 l 44 36 l 71 36 q 119 42 107 36 q 138 82 138 51 l 138 469 l 44 397 l 44 464 l 138 536 l 138 856 q 121 938 138 918 q 64 964 110 950 l 64 986 q 207 1046 151 1014 q 238 1061 235 1061 q 249 1042 249 1061 l 249 621 l 342 693 l 342 626 l 249 554 l 249 82 q 269 42 249 51 q 318 36 282 36 l 342 36 l 342 0 q 269 1 318 0 q 196 3 221 3 q 44 0 147 3 z "},"Œ":{"ha":1389,"x_min":81,"x_max":1367,"o":"m 760 222 l 760 740 q 732 889 760 849 q 578 946 694 946 q 317 796 414 946 q 233 492 233 665 q 324 174 233 306 q 597 24 425 24 q 731 76 694 24 q 760 222 760 118 m 896 925 l 896 531 l 1079 531 q 1154 553 1135 531 q 1174 650 1174 575 l 1203 650 q 1200 494 1200 550 q 1203 356 1200 439 l 1175 356 q 1158 442 1175 419 q 1071 474 1138 474 l 896 474 l 896 174 q 932 63 896 85 q 1068 44 961 44 q 1242 67 1197 44 q 1336 213 1307 99 l 1367 206 q 1324 0 1350 138 q 1187 1 1278 0 q 1050 3 1096 3 q 783 -9 936 3 q 586 -21 629 -21 q 224 118 367 -21 q 81 478 81 257 q 223 840 81 689 q 574 990 365 990 q 685 983 615 990 q 788 974 783 974 q 1031 967 885 967 q 1288 969 1126 967 q 1301 767 1288 850 l 1268 763 q 1214 890 1251 856 q 1086 925 1176 925 l 896 925 z "},"œ":{"ha":1081,"x_min":58,"x_max":1054,"o":"m 1035 156 l 1054 136 q 796 -21 942 -21 q 585 103 671 -21 q 353 -21 490 -21 q 136 82 219 -21 q 58 314 58 176 q 139 538 58 446 q 369 635 226 635 q 606 532 519 635 q 814 635 694 635 q 972 581 906 635 q 1050 417 1049 519 q 1049 392 1050 401 l 1036 383 l 646 383 q 646 303 642 365 q 710 133 651 203 q 850 63 768 63 q 1035 156 939 63 m 186 317 q 225 129 186 211 q 368 24 275 24 q 511 126 467 24 q 543 314 543 200 q 507 494 543 421 q 364 590 460 590 q 224 496 271 590 q 186 317 186 421 m 650 428 l 893 428 q 931 463 931 428 q 899 554 931 518 q 811 590 868 590 q 650 428 679 590 z "},"Š":{"ha":694,"x_min":64,"x_max":631,"o":"m 92 26 l 64 229 l 96 229 q 169 88 115 144 q 313 24 231 24 q 449 75 394 24 q 503 208 503 126 q 396 382 503 314 q 199 497 297 440 q 92 718 92 579 q 176 921 92 849 q 389 990 257 990 q 558 969 419 990 l 581 792 l 549 792 q 369 946 525 946 q 247 896 292 946 q 203 768 203 846 q 314 593 203 663 q 519 478 417 535 q 631 261 631 396 q 529 53 631 132 q 304 -21 435 -21 q 92 26 193 -21 m 386 1028 l 308 1028 l 139 1258 l 185 1258 l 347 1111 l 510 1258 l 556 1258 l 386 1028 z "},"š":{"ha":540,"x_min":58,"x_max":482,"o":"m 58 186 l 83 193 q 258 24 117 24 q 346 54 315 24 q 371 122 371 81 q 292 232 371 189 q 147 307 219 269 q 68 457 68 363 q 118 575 68 525 q 283 635 178 635 q 442 594 363 635 l 451 453 l 419 453 q 268 590 397 590 q 192 566 224 590 q 160 499 160 542 q 243 389 160 432 q 399 314 321 351 q 482 168 482 261 q 425 39 482 92 q 243 -21 358 -21 q 74 26 157 -21 l 58 186 m 310 760 l 232 760 l 63 990 l 108 990 l 271 843 l 433 990 l 479 990 l 310 760 z "},"Ÿ":{"ha":1003,"x_min":33,"x_max":969,"o":"m 589 494 l 589 136 q 625 50 589 71 q 715 36 647 38 l 715 0 q 518 3 576 3 q 326 0 457 3 l 326 36 q 417 50 394 38 q 453 136 453 71 l 453 472 l 163 872 q 116 920 133 913 q 33 933 99 928 l 33 969 q 226 967 86 967 q 312 968 256 967 q 396 969 368 969 l 396 933 q 318 904 318 933 q 364 818 318 882 l 558 544 l 740 793 q 794 893 794 867 q 772 928 794 921 q 696 933 756 933 l 696 969 q 856 967 801 967 q 912 968 874 967 q 969 969 950 969 l 969 933 q 901 908 931 932 q 854 853 885 894 l 589 494 m 714 1115 q 694 1072 714 1090 q 650 1053 675 1053 q 606 1072 625 1053 q 586 1115 586 1090 q 606 1160 586 1140 q 650 1179 625 1179 q 694 1160 675 1179 q 714 1115 714 1140 m 444 1115 q 425 1072 444 1090 q 381 1053 406 1053 q 335 1072 354 1053 q 317 1115 317 1090 q 335 1160 317 1140 q 381 1179 354 1179 q 425 1160 406 1179 q 444 1115 444 1140 z "},"Ž":{"ha":1003,"x_min":32,"x_max":971,"o":"m 971 236 l 907 0 q 678 1 831 0 q 468 3 526 3 q 250 1 396 3 q 32 0 104 0 l 729 913 l 279 913 q 154 865 196 913 q 107 767 126 835 l 74 767 q 99 878 86 822 q 115 990 115 956 l 151 990 q 188 969 154 969 l 932 969 l 238 57 l 643 57 q 844 97 786 57 q 940 244 894 131 l 971 236 m 540 1028 l 463 1028 l 293 1258 l 339 1258 l 501 1111 l 664 1258 l 710 1258 l 540 1028 z "},"ž":{"ha":617,"x_min":31,"x_max":579,"o":"m 192 44 l 393 44 q 476 69 450 44 q 550 182 496 88 l 579 175 l 540 0 l 31 0 l 31 11 l 401 569 l 242 569 q 156 557 179 569 q 96 467 117 536 l 63 467 l 81 643 l 108 643 q 129 618 108 622 q 201 614 143 614 l 560 614 l 192 44 m 347 760 l 269 760 l 100 990 l 146 990 l 308 843 l 471 990 l 517 990 l 347 760 z "},"ƒ":{"ha":772,"x_min":11,"x_max":761,"o":"m 633 624 l 628 579 l 460 579 q 376 200 418 389 q 259 -169 325 -21 q 90 -317 193 -317 q 35 -291 58 -317 q 11 -231 11 -265 q 58 -171 11 -171 q 103 -210 103 -171 q 97 -232 103 -218 q 92 -251 92 -246 q 110 -272 92 -272 q 175 -208 147 -272 q 257 114 214 -122 l 343 579 l 208 579 l 215 624 l 351 624 q 636 990 422 990 q 761 906 761 990 q 699 838 761 838 q 665 851 681 838 q 653 879 650 864 q 656 903 653 882 q 658 931 658 925 q 617 954 658 954 q 510 818 550 954 q 467 624 488 721 l 633 624 z "},"ˆ":{"ha":386,"x_min":-15,"x_max":401,"o":"m 154 990 l 232 990 l 401 760 l 356 760 l 193 907 l 31 760 l -15 760 l 154 990 z "},"ˇ":{"ha":386,"x_min":-15,"x_max":401,"o":"m 232 760 l 154 760 l -15 990 l 31 990 l 193 843 l 356 990 l 401 990 l 232 760 z "},"¯":{"ha":386,"x_min":8,"x_max":378,"o":"m 378 806 l 8 806 l 8 881 l 378 881 l 378 806 z "},"ˉ":{"ha":386,"x_min":8,"x_max":378,"o":"m 378 806 l 8 806 l 8 881 l 378 881 l 378 806 z "},"˘":{"ha":386,"x_min":0,"x_max":386,"o":"m 0 969 l 36 969 q 86 869 42 908 q 193 829 131 829 q 300 869 256 829 q 350 969 344 908 l 386 969 q 193 754 369 754 q 0 969 17 754 z "},"˙":{"ha":386,"x_min":129,"x_max":257,"o":"m 257 847 q 238 803 257 822 q 193 785 218 785 q 148 803 167 785 q 129 847 129 822 q 148 892 129 872 q 193 911 167 911 q 238 892 218 911 q 257 847 257 872 z "},"˚":{"ha":386,"x_min":58,"x_max":328,"o":"m 58 856 q 99 950 58 910 q 193 990 139 990 q 288 950 247 990 q 328 856 328 910 q 288 760 328 801 q 193 719 247 719 q 99 760 139 719 q 58 856 58 801 m 103 856 q 128 790 103 817 q 193 764 154 764 q 258 790 232 764 q 283 856 283 817 q 258 920 283 894 q 193 946 232 946 q 128 920 154 946 q 103 856 103 894 z "},"˛":{"ha":386,"x_min":64,"x_max":322,"o":"m 219 0 l 272 0 q 156 -176 156 -97 q 172 -222 156 -204 q 211 -239 189 -239 q 294 -192 260 -239 l 322 -206 q 194 -296 278 -296 q 64 -182 64 -296 q 219 0 64 -93 z "},"˜":{"ha":386,"x_min":-31,"x_max":417,"o":"m 379 929 l 379 929 l 417 929 q 290 785 390 785 q 183 817 254 785 q 78 850 111 850 q 7 785 28 850 l -31 785 q 100 929 1 929 q 207 900 136 929 q 313 868 285 868 q 379 929 358 868 z "},"˝":{"ha":386,"x_min":-143,"x_max":418,"o":"m -85 758 l -143 758 l 57 958 q 114 990 89 990 q 163 939 163 990 q 122 888 163 913 l -85 758 m 172 758 l 114 758 l 313 958 q 369 990 344 990 q 418 939 418 990 q 378 888 418 913 l 172 758 z "},"Χ":{"ha":1389,"x_min":0,"x_max":0,"o":""},"µ":{"ha":772,"x_min":46,"x_max":735,"o":"m 640 589 l 640 76 q 679 50 640 50 q 707 51 688 50 q 735 51 725 51 l 735 22 q 535 -21 644 14 l 528 -17 l 528 96 q 411 13 453 35 q 282 -21 349 -21 q 207 8 238 -21 q 218 -136 207 -50 q 226 -244 228 -217 q 163 -317 224 -317 q 107 -244 107 -317 q 118 -85 107 -222 q 129 146 129 51 l 129 500 q 46 578 129 571 l 46 604 q 147 610 74 606 q 225 614 217 614 q 240 574 240 614 l 240 215 q 361 54 240 54 q 529 139 428 54 l 529 513 q 413 569 529 538 l 413 594 q 563 607 486 600 q 629 614 626 614 q 640 589 640 614 z "},"μ":{"ha":772,"x_min":46,"x_max":735,"o":"m 640 589 l 640 76 q 679 50 640 50 q 707 51 688 50 q 735 51 725 51 l 735 22 q 535 -21 644 14 l 528 -17 l 528 96 q 411 13 453 35 q 282 -21 349 -21 q 207 8 238 -21 q 218 -136 207 -50 q 226 -244 228 -217 q 163 -317 224 -317 q 107 -244 107 -317 q 118 -85 107 -222 q 129 146 129 51 l 129 500 q 46 578 129 571 l 46 604 q 147 610 74 606 q 225 614 217 614 q 240 574 240 614 l 240 215 q 361 54 240 54 q 529 139 428 54 l 529 513 q 413 569 529 538 l 413 594 q 563 607 486 600 q 629 614 626 614 q 640 589 640 614 z "},"–":{"ha":694,"x_min":0,"x_max":694,"o":"m 0 293 l 0 385 l 694 385 l 694 293 l 0 293 z "},"—":{"ha":1389,"x_min":0,"x_max":1389,"o":"m 0 293 l 0 385 l 1389 385 l 1389 293 l 0 293 z "},"‘":{"ha":386,"x_min":86,"x_max":300,"o":"m 279 969 l 279 969 l 293 936 q 160 800 160 893 q 230 742 160 742 q 300 669 300 742 q 215 597 300 597 q 118 644 154 597 q 86 750 86 688 q 279 969 86 914 z "},"’":{"ha":386,"x_min":86,"x_max":300,"o":"m 107 597 l 107 597 l 93 631 q 226 767 226 674 q 156 825 226 825 q 86 897 86 825 q 171 969 86 969 q 268 922 232 969 q 300 817 300 879 q 107 597 300 653 z "},"‚":{"ha":386,"x_min":86,"x_max":300,"o":"m 107 -212 l 107 -212 l 93 -179 q 226 -43 226 -136 q 156 15 226 15 q 86 88 86 15 q 171 160 86 160 q 268 113 232 160 q 300 7 300 69 q 107 -212 300 -157 z "},"“":{"ha":772,"x_min":138,"x_max":635,"o":"m 331 969 l 331 969 l 344 936 q 211 800 211 893 q 281 742 211 742 q 351 669 351 742 q 267 597 351 597 q 169 644 206 597 q 138 750 138 688 q 331 969 138 914 m 614 969 l 614 969 l 628 936 q 494 800 494 893 q 565 742 494 742 q 635 669 635 742 q 550 597 635 597 q 453 644 489 597 q 421 750 421 688 q 614 969 421 914 z "},"”":{"ha":772,"x_min":138,"x_max":635,"o":"m 442 597 l 442 597 l 428 631 q 561 767 561 674 q 491 825 561 825 q 421 897 421 825 q 506 969 421 969 q 603 922 567 969 q 635 817 635 879 q 442 597 635 653 m 158 597 l 158 597 l 144 631 q 278 767 278 674 q 208 825 278 825 q 138 897 138 825 q 222 969 138 969 q 319 922 283 969 q 351 817 351 879 q 158 597 351 653 z "},"„":{"ha":772,"x_min":138,"x_max":635,"o":"m 442 -212 l 442 -212 l 428 -179 q 561 -43 561 -136 q 491 15 561 15 q 421 88 421 15 q 506 160 421 160 q 603 113 567 160 q 635 7 635 69 q 442 -212 635 -157 m 158 -212 l 158 -212 l 144 -179 q 278 -43 278 -136 q 208 15 278 15 q 138 88 138 15 q 222 160 138 160 q 319 113 283 160 q 351 7 351 69 q 158 -212 351 -157 z "},"†":{"ha":772,"x_min":82,"x_max":689,"o":"m 426 739 l 426 622 l 481 622 q 689 632 610 622 q 685 586 683 604 q 689 543 685 576 q 426 557 543 557 l 426 333 q 431 47 426 225 q 436 -251 435 -189 l 433 -251 q 386 -247 396 -247 q 338 -251 375 -247 l 335 -251 q 340 47 336 -189 q 344 333 344 225 l 344 557 q 82 543 228 557 q 86 586 83 556 q 82 632 88 604 q 290 622 161 622 l 344 622 l 344 739 q 335 974 344 838 q 386 969 389 969 q 436 974 386 969 q 426 739 426 838 z "},"‡":{"ha":772,"x_min":88,"x_max":683,"o":"m 344 113 l 344 199 q 329 353 344 310 l 329 356 q 344 499 344 404 l 344 599 q 88 589 249 599 q 90 633 90 617 q 88 676 90 649 q 344 664 250 664 q 335 974 346 703 q 388 969 364 969 q 436 974 394 969 q 426 664 425 703 q 683 676 521 664 q 681 633 681 649 q 683 589 681 617 q 426 599 524 599 l 426 499 q 442 356 426 404 l 442 353 q 426 206 426 308 l 426 113 q 683 125 521 113 q 681 82 681 97 q 683 38 681 65 q 426 47 524 47 q 436 -251 426 -15 q 414 -249 429 -251 q 390 -247 399 -247 q 335 -251 389 -247 q 344 47 344 -15 q 88 38 249 47 q 90 82 90 65 q 88 125 90 97 q 344 113 250 113 z "},"•":{"ha":694,"x_min":104,"x_max":590,"o":"m 347 728 q 519 657 447 728 q 590 485 590 586 q 519 313 590 385 q 347 242 447 242 q 175 313 246 242 q 104 485 104 385 q 175 657 104 586 q 347 728 246 728 z "},"…":{"ha":1389,"x_min":142,"x_max":1247,"o":"m 1156 -21 q 1091 6 1118 -21 q 1064 69 1064 32 q 1092 134 1064 106 q 1156 163 1119 163 q 1219 135 1192 163 q 1247 69 1247 107 q 1220 6 1247 32 q 1156 -21 1193 -21 m 694 -21 q 630 6 657 -21 q 603 69 603 32 q 631 134 603 106 q 694 163 658 163 q 758 135 731 163 q 786 69 786 107 q 759 6 786 32 q 694 -21 732 -21 m 233 -21 q 169 6 196 -21 q 142 69 142 32 q 169 134 142 106 q 233 163 197 163 q 297 135 269 163 q 325 69 325 107 q 298 6 325 32 q 233 -21 271 -21 z "},"‰":{"ha":1389,"x_min":49,"x_max":1340,"o":"m 449 760 q 392 597 449 661 q 244 532 336 532 q 97 599 150 532 q 49 751 49 658 q 105 915 49 850 q 253 979 161 979 q 401 913 347 979 q 449 760 449 853 m 346 763 q 250 943 346 943 q 151 749 151 943 q 247 568 151 568 q 346 763 346 568 m 879 207 q 823 44 879 108 q 675 -21 767 -21 q 528 46 581 -21 q 479 199 479 106 q 535 362 479 297 q 683 426 592 426 q 832 360 778 426 q 879 207 879 300 m 776 210 q 681 390 776 390 q 582 196 582 390 q 678 15 582 15 q 776 210 776 15 m 1340 207 q 1284 44 1340 108 q 1136 -21 1228 -21 q 989 46 1042 -21 q 940 199 940 106 q 997 362 940 297 q 1144 426 1053 426 q 1293 360 1239 426 q 1340 207 1340 300 m 1238 210 q 1142 390 1238 390 q 1043 196 1043 390 q 1139 15 1043 15 q 1238 210 1238 15 m 179 -33 l 115 -33 l 744 992 l 808 992 l 179 -33 z "},"‹":{"ha":386,"x_min":65,"x_max":321,"o":"m 65 339 l 297 565 l 321 546 l 176 339 l 321 132 l 297 113 l 65 339 z "},"›":{"ha":386,"x_min":65,"x_max":321,"o":"m 321 339 l 89 113 l 65 132 l 210 339 l 65 546 l 89 565 l 321 339 z "},"⁄":{"ha":232,"x_min":-229,"x_max":461,"o":"m -165 -32 l -229 -32 l 397 990 l 461 990 l -165 -32 z "},"™":{"ha":1375,"x_min":44,"x_max":1331,"o":"m 335 942 l 335 490 q 345 451 335 458 q 403 436 356 443 l 403 408 l 164 408 l 164 436 q 222 451 211 443 q 232 490 232 458 l 232 942 l 165 942 q 72 847 93 942 l 44 847 l 44 969 l 522 969 l 522 847 l 494 847 q 403 942 474 942 l 335 942 m 925 408 l 718 831 l 715 831 l 715 526 q 730 460 715 479 q 789 436 744 442 l 789 408 l 607 408 l 607 436 q 675 479 664 443 q 679 526 679 494 l 679 872 q 583 940 651 940 l 583 969 l 751 969 l 965 540 l 1188 969 l 1331 969 l 1331 940 q 1257 865 1257 936 l 1257 490 q 1267 451 1257 458 q 1325 436 1278 443 l 1325 408 l 1086 408 l 1086 436 q 1144 451 1133 443 q 1154 490 1154 458 l 1154 833 l 1151 833 l 940 408 l 925 408 z "},"­":{"ha":772,"x_min":79,"x_max":693,"o":"m 693 261 l 79 261 l 79 353 l 693 353 l 693 261 z "},"−":{"ha":772,"x_min":79,"x_max":693,"o":"m 693 261 l 79 261 l 79 353 l 693 353 l 693 261 z "},"·":{"ha":386,"x_min":101,"x_max":285,"o":"m 285 406 q 258 342 285 369 q 194 314 231 314 q 128 341 156 314 q 101 406 101 368 q 128 471 101 444 q 193 497 156 497 q 258 470 231 497 q 285 406 285 443 z "},"∙":{"ha":386,"x_min":101,"x_max":285,"o":"m 285 406 q 258 342 285 369 q 194 314 231 314 q 128 341 156 314 q 101 406 101 368 q 128 471 101 444 q 193 497 156 497 q 258 470 231 497 q 285 406 285 443 z "},"":{"ha":772,"x_min":33,"x_max":739,"o":"m 249 539 l 249 69 q 314 36 249 36 l 350 36 l 350 0 q 199 3 283 3 q 33 0 133 3 l 33 36 l 79 36 q 138 81 138 36 l 138 539 l 40 539 l 40 563 q 97 594 69 578 q 138 653 138 622 q 242 949 138 836 q 506 1061 346 1061 q 615 1033 574 1061 q 657 953 657 1006 q 597 888 657 888 q 546 917 558 888 q 524 974 533 946 q 447 1004 503 1004 q 286 900 329 1004 q 249 614 253 819 l 525 614 q 601 628 574 614 q 626 643 629 643 q 646 615 646 643 l 646 82 q 667 42 646 51 q 715 36 679 36 l 739 36 l 739 0 q 667 1 715 0 q 593 3 618 3 q 442 0 544 3 l 442 36 l 468 36 q 517 42 504 36 q 535 82 535 51 l 535 511 q 526 535 535 531 q 488 539 517 539 l 249 539 z "},"":{"ha":772,"x_min":33,"x_max":739,"o":"m 578 1039 l 631 1061 l 646 1061 l 646 82 q 667 42 646 51 q 715 36 679 36 l 739 36 l 739 0 q 667 1 715 0 q 593 3 618 3 q 442 0 544 3 l 442 36 l 468 36 q 517 42 504 36 q 535 82 535 51 l 535 853 q 425 1004 535 1004 q 281 900 318 1004 q 249 614 253 821 l 408 614 l 408 539 l 249 539 l 249 69 q 314 36 249 36 l 350 36 l 350 0 q 199 3 283 3 q 33 0 133 3 l 33 36 l 79 36 q 138 81 138 36 l 138 539 l 40 539 l 40 563 q 97 594 69 578 q 138 653 138 622 q 235 949 138 838 q 490 1061 332 1061 q 578 1039 542 1061 z "}}}
